<svg xmlns="http://www.w3.org/2000/svg" width="461" height="81" fill="none"><path fill="#fff" fill-rule="evenodd" d="M246.1 80.7c24.08 0 41.54-17.1 41.54-41.3 0-22.6-19.97-38.5-41.54-38.5s-41.53 15.9-41.53 38.5c0 24.2 17.45 41.3 41.53 41.3Zm-.1-18.9c-11.64 0-21.17-9.4-21.17-22.3 0-10.3 9.63-19.8 21.17-19.8 11.64 0 21.17 9.5 21.17 19.8 0 12.9-9.53 22.3-21.17 22.3ZM31.5 17.6c4.82 0 9.33 2 12.94 5l7.73-15c-6.62-3.8-15.95-6.2-23.48-6.2-15.05 0-25.88 9.9-25.88 25.1 0 14.5 8.03 17.6 20.27 21.2l.75.21c4.3 1.2 11.08 3.1 11.08 8.29 0 5.2-4.81 7.5-9.43 7.5-6.72 0-12.44-3.4-17.35-7.7L0 71.5C7.62 76.8 16.96 80 26.39 80c7.52 0 15.35-2 21.27-7 5.91-5 7.72-12.7 7.72-20.1 0-12.1-8.13-17.3-18.56-20.4L31.8 31c-3.3-1-8.62-2.7-8.62-7.1 0-4.2 4.71-6.3 8.32-6.3Zm60.4 14.7V19.8l23.27.1V3.4H72.44v74.8h42.73V61.7H91.9V48.8h21.97V32.3H91.9Zm37.72-28.9h27.7c20.86 0 38.12 16.4 38.12 37.4s-17.36 37.4-38.13 37.4h-27.69V3.4Zm19.56 58.3h4.42c11.64 0 21.57-6.4 21.57-20.9 0-13.4-8.83-20.9-21.37-20.9h-4.62v41.8Zm148.8-58.3h19.56l35.72 45.8h.2V3.4h19.56v74.8h-19.56l-35.72-45.9h-.2v45.9h-19.56V3.4Zm105.24 74.8 5.22-13h26.89l4.91 13H461L432.7 3.4h-21.26l-28.9 74.8h20.67Zm18.66-51.7h.2l8.03 23.8h-16.25l8.02-23.8Z" clip-rule="evenodd"/></svg>