<svg xmlns="http://www.w3.org/2000/svg">
  <style>:root svg:not(:target) { display: none }</style>

<!-- Иконка крестик для мобильного меню -->
  <svg id="cross-icon" width="23" height="23" viewBox="0 0 23 23">
<path d="M22.2 2.8L19.4 0L11.1 8.3L2.8 0L0 2.8L8.3 11.1L0 19.4L2.8 22.2L11.1 13.9L19.4 22.2L22.2 19.4L13.9 11.1L22.2 2.8Z" fill="white"/>
</svg>

<!-- Иконка бургер для мобильного меню -->
<svg id="burger-icon" viewBox="0 0 23 22">
<path d="M22.9 0H0V4H22.9V0Z" fill="#81B3D2"/>
<path d="M22.9 9H0V13H22.9V9Z" fill="#81B3D2"/>
<path d="M22.9 18H0V22H22.9V18Z" fill="#81B3D2"/>
</svg>

<!-- Иконка-текст "Welcome to the gorgeous" -->
<svg id="welcome-icon" viewBox="0 0 116 52">
<path d="M18.385 42.8044L18.2623 42.9267C17.4031 43.844 16.4211 44.272 15.5006 44.272L17.219 41.2757C18.3236 39.3801 17.2803 37.5456 15.5619 37.5456C14.1504 37.5456 13.0457 38.096 12.0024 39.9304L11.0819 41.5203L10.3454 42.8044L10.2227 42.9267C8.8725 44.4555 7.5837 45.6785 6.78588 45.6785C6.35628 45.6785 6.17217 45.3727 6.60176 44.7001L10.5295 37.8514H12.0024L12.5548 36.9953H11.0205L12.7389 33.999H10.8977L9.17935 36.9953H7.52233L6.97 37.8514H8.62701L4.94475 44.2109C4.14692 45.5562 4.69926 46.8403 6.17217 46.8403C7.21548 46.8403 8.4429 46.0454 9.54758 44.9447C9.54758 47.2683 12.8002 47.7575 14.7641 45.2504H15.1937C16.2984 45.2504 18.0168 44.5778 18.9374 43.4771C18.9374 43.1713 18.6305 42.9267 18.385 42.8044ZM14.4573 42.9267H14.3959C13.7822 42.9267 13.2912 43.4159 13.2912 44.0274C13.2912 44.272 13.3526 44.4555 13.4753 44.6389V44.7001C12.6161 46.1677 10.5295 45.9231 11.5728 43.9663L12.9844 41.5815L13.8436 40.1139C15.1323 37.9125 16.9121 38.7686 15.8074 40.6642L14.4573 42.9267Z" fill="#766458"/>
<path d="M43.854 42.8042L43.7312 42.9265C42.3811 44.4552 40.7241 45.6782 39.4353 45.6782C38.3306 45.6782 37.6555 44.9444 38.4533 43.4768L38.6374 43.1711C39.8035 43.6603 42.0742 43.4157 43.4244 41.0309L43.6699 40.6028C44.6518 38.8907 43.7312 37.6677 42.197 37.6677C40.7241 37.6677 39.558 38.4626 38.7602 39.8079L36.9804 42.8654L36.8577 42.9877C35.5075 44.5164 34.2187 45.7394 33.4209 45.7394C32.9913 45.7394 32.8072 45.4336 33.2368 44.761L35.8757 40.1136C36.6736 38.7072 35.9371 37.7288 34.8938 37.7288C34.096 37.7288 33.2368 38.1569 32.3162 39.1353L35.262 34.0599H33.4209L28.3271 42.8042L28.2044 42.9265C26.8542 44.4552 25.5654 45.6782 24.7676 45.6782C24.338 45.6782 24.1539 45.3725 24.5835 44.6998L28.5112 37.8511H29.9841L30.5365 36.995H29.0022L30.7206 33.9987H28.8794L27.1611 36.995H25.504L24.9517 37.8511H26.6087L22.9265 44.2106C22.1286 45.5559 22.681 46.8401 24.1539 46.8401C24.8903 46.8401 25.6882 46.4732 26.486 45.8617L25.995 46.6566H27.8361L30.5978 41.8258C33.4209 38.2792 34.6483 38.7684 33.9119 40.1136L31.5184 44.2718C30.7206 45.6171 31.2729 46.9012 32.7458 46.9012C33.8505 46.9012 35.0779 46.0451 36.1826 44.9444C36.244 46.1063 37.2259 46.9012 38.6988 46.9012C40.7854 46.9012 42.872 45.3113 44.3449 43.538C44.4063 43.1711 44.0995 42.9265 43.854 42.8042ZM40.3558 40.2359C41.3991 38.4015 43.3016 38.7072 42.197 40.6028L41.9515 41.0309C41.0923 42.4985 39.8649 42.4985 39.1898 42.2539L40.3558 40.2359Z" fill="#766458"/>
<path d="M110.81 42.8044L110.687 42.9267C110.012 43.7217 109.214 44.3943 108.478 44.9446C109.091 43.1713 108.907 40.5419 110.073 38.1571L108.723 37.4233C107.987 38.4628 106.33 40.8476 104.611 42.8044L104.488 42.9267C103.138 44.4554 101.849 45.6784 101.052 45.6784C100.622 45.6784 100.438 45.3727 100.868 44.7L104.795 37.8513H102.954L99.7015 43.5382C98.29 44.8223 97.2466 45.495 96.8784 45.3727C96.4488 45.1892 96.8784 44.5166 97.1239 44.0886L100.683 37.8513H98.8423L95.9579 42.8044L95.8351 42.9267C94.9759 43.844 93.994 44.272 93.0734 44.272L94.7918 41.2757C95.8965 39.3801 94.8532 37.5456 93.1348 37.5456C91.7233 37.5456 90.6186 38.0959 89.5753 39.9304L88.6547 41.5203L87.9183 42.8044L87.7955 42.9267C86.4453 44.4554 84.7883 45.6784 83.4995 45.6784C82.3949 45.6784 81.7198 44.9446 82.5176 43.4771L82.7017 43.1713C83.8678 43.6605 86.1385 43.4159 87.4887 41.0311L87.7341 40.6031C88.7161 38.8909 87.7955 37.6679 86.2612 37.6679C84.7883 37.6679 83.6223 38.4628 82.8245 39.8081L81.0447 42.8656L80.9219 42.9879C79.3877 44.7612 78.0989 45.8619 76.626 46.4734L80.7378 39.4412H79.6332C79.6332 38.7074 78.8353 37.6679 77.7307 37.6679C76.7487 37.6679 75.3372 38.4628 74.6007 39.8081L72.821 42.8656L72.6982 42.9879C71.3481 44.5166 70.0593 45.7396 69.2615 45.7396C68.8319 45.7396 68.6477 45.4338 69.0773 44.7612L70.9185 41.5814C71.5322 40.4808 71.2253 39.8081 70.673 39.0743L69.6297 37.8513C69.3842 37.5456 69.3842 37.1175 69.7524 36.8118L68.7705 35.7723C67.7272 36.6895 67.6658 37.729 68.2795 38.5851L68.4636 38.7686C67.6658 39.9304 66.5611 41.4591 65.3337 42.8656L65.211 42.9879C64.3518 43.9051 63.3698 44.3332 62.4493 44.3332L64.1677 41.3368C65.2723 39.4412 64.229 37.6067 62.5106 37.6067C61.0991 37.6067 59.9944 38.1571 58.9511 39.9916L58.0306 41.5814L57.2941 42.8656L57.1714 42.9879C55.6371 44.7612 54.3483 45.8619 52.8754 46.4734L56.9872 39.4412H55.8826C55.8826 38.7074 55.0847 37.6679 53.9801 37.6679C52.9981 37.6679 51.5866 38.4628 50.8501 39.8081L48.2726 44.272C47.4747 45.6173 48.0271 46.9014 49.5 46.9014C49.9909 46.9014 50.6047 46.6568 51.2797 46.2899L50.7888 47.146C48.3339 47.8798 46.7383 48.9193 46.7383 50.2646C46.7383 52.038 49.4386 52.4048 50.7888 50.1423L52.2003 47.7575C53.6732 47.3295 55.0847 46.4122 56.619 45.0058C56.619 47.3295 59.8717 47.8187 61.8356 45.3115H62.2652C63.3698 45.3115 65.0882 44.6389 66.0088 43.5382C66.868 42.4987 67.6044 41.5814 69.0773 39.6247L69.3228 39.9304C69.5683 40.2362 69.6297 40.6031 69.4456 40.9699L67.4817 44.3332C66.6839 45.6784 67.2362 46.9626 68.7091 46.9626C69.6297 46.9626 70.673 46.3511 71.6549 45.495C71.6549 46.3511 72.2073 46.9626 73.2506 46.9626C73.7415 46.9626 74.3553 46.718 75.0303 46.3511L74.6007 47.0849C72.1459 47.8187 70.5502 48.8582 70.5502 50.2035C70.5502 51.9768 73.2506 52.3437 74.6007 50.0812L76.0123 47.6964C77.4852 47.2072 78.9581 46.3511 80.4924 44.8835C80.5537 46.0453 81.4743 46.8403 83.0086 46.8403C84.4815 46.8403 86.0158 45.9842 87.2432 44.8835C87.1818 47.2683 90.4958 47.7575 92.4597 45.2504H92.8893C93.4416 45.2504 94.2395 45.0669 94.9146 44.7C94.4236 45.9842 94.8532 46.8403 95.8965 46.8403C96.8784 46.8403 98.0445 45.923 98.9037 45.0669C98.7196 46.0453 99.3333 46.8403 100.499 46.8403C102.034 46.8403 103.752 45.2504 105.286 43.4771C106.33 42.2541 107.25 40.9699 107.925 40.1139C107.189 42.0095 107.618 45.4338 105.839 45.4338C105.225 45.4338 104.979 44.7612 104.979 44.7612L103.813 45.3727C103.813 45.3727 104.12 46.8403 105.839 46.8403C106.023 46.8403 106.145 46.8403 106.33 46.7791H106.391C108.293 46.5345 110.135 45.0669 111.485 43.4771C111.423 43.1713 111.117 42.8656 110.81 42.8044ZM84.4815 40.2362C85.5248 38.4017 87.4273 38.7074 86.3226 40.6031L86.0771 41.0311C85.2179 42.4987 83.9905 42.4987 83.3154 42.2541L84.4815 40.2362ZM49.3772 49.7754C49.009 50.4481 48.3953 50.3869 48.3953 49.8366C48.3953 49.3474 48.8249 48.797 50.2364 48.2467L49.3772 49.7754ZM50.2364 45.6784C49.8068 45.6784 49.6227 45.3727 50.0523 44.7L52.6299 40.2362C53.6118 38.524 55.5757 38.952 54.6551 40.6031L53.2436 43.049C52.1389 44.8223 50.9729 45.6784 50.2364 45.6784ZM61.5287 42.9267H61.4673C60.8536 42.9267 60.3627 43.4159 60.3627 44.0274C60.3627 44.272 60.424 44.4555 60.5468 44.6389V44.7C59.6876 46.1676 57.601 45.923 58.6443 43.9663L60.0558 41.5814L60.915 40.1139C62.2038 37.9125 63.9835 38.7686 62.8789 40.6642L61.5287 42.9267ZM73.0665 49.7754C72.6982 50.4481 72.0845 50.3869 72.0845 49.8366C72.0845 49.3474 72.5141 48.797 73.9256 48.2467L73.0665 49.7754ZM73.9256 45.6784C73.4961 45.6784 73.3119 45.3727 73.7415 44.7L76.3191 40.2362C77.3011 38.524 79.2649 38.952 78.3444 40.6031L76.9328 43.049C75.8281 44.8223 74.6621 45.6784 73.9256 45.6784ZM92.0301 42.9267H91.9687C91.355 42.9267 90.8641 43.4159 90.8641 44.0274C90.8641 44.272 90.9254 44.4555 91.0482 44.6389V44.7C90.189 46.1676 88.1024 45.923 89.1457 43.9663L90.5572 41.5814L91.4164 40.1139C92.7052 37.9125 94.485 38.7686 93.3803 40.6642L92.0301 42.9267Z" fill="#766458"/>
<path d="M17.0349 0H21.7605L21.024 27.456H12.1252L10.8978 16.1434L9.67037 27.456H0.710203L0.0351181 0H4.69932L5.06754 22.7475H5.55851L8.56569 0H13.2299L16.2371 22.7475H16.728L17.0349 0Z" fill="#81B3D3"/>
<path d="M36.5508 22.7475V27.5171H23.7243V0H36.5508V4.70849H28.3885V11.3126H34.8938V16.0211H28.3885V22.6864H36.5508V22.7475Z" fill="#81B3D3"/>
<path d="M49.6842 22.7475V27.5171H38.4533V0H43.1175V22.7475H49.6842Z" fill="#81B3D3"/>
<path d="M59.6263 17.3664L64.3519 16.2657V24.582C64.3519 26.1719 63.0017 27.456 61.4675 27.456H54.4098C52.8141 27.456 51.5253 26.1107 51.5253 24.582V2.87401C51.5253 1.28413 52.8141 0 54.4098 0H61.4675C63.0017 0 64.3519 1.28413 64.3519 2.87401V8.43859L59.6263 9.53928V4.64734H56.2509V22.6864H59.6263V17.3664Z" fill="#81B3D3"/>
<path d="M77.117 0C78.6513 0 80.0015 1.28413 80.0015 2.87401V24.5208C80.0015 26.1107 78.6513 27.3948 77.117 27.3948H70.0594C68.4637 27.3948 67.1749 26.0496 67.1749 24.5208V2.87401C67.1749 1.28413 68.4637 0 70.0594 0H77.117ZM75.2759 4.70849H71.9005V22.7475H75.2759V4.70849Z" fill="#81B3D3"/>
<path d="M95.3443 0H100.009V27.456H95.3443V13.942L93.4418 20.913H88.839L86.9979 13.942V27.456H82.3336V0H86.9979L91.1711 13.2694L95.3443 0Z" fill="#81B3D3"/>
<path d="M115.167 22.7475V27.5171H102.341V0H115.167V4.70849H107.005V11.3126H113.51V16.0211H107.005V22.6864H115.167V22.7475Z" fill="#81B3D3"/>
</svg>

<!-- Иконка-текст "SEDONA" -->
<svg id="sedona-icon" viewBox="0 0 282 49">
<path d="M27.1874 13.3723C24.978 11.5378 22.2163 10.3148 19.2705 10.3148C17.0612 10.3148 14.1767 11.5989 14.1767 14.1672C14.1767 16.8578 17.4294 17.8973 19.4546 18.5088L22.5232 19.426C28.9058 21.3216 33.8768 24.5014 33.8768 31.9005C33.8768 36.4255 32.7721 41.134 29.1513 44.1915C25.5304 47.2489 20.7434 48.4719 16.1406 48.4719C10.3717 48.4719 4.6642 46.5151 0 43.2742L4.97106 33.7961C7.97824 36.4255 11.4764 38.5046 15.5882 38.5046C18.4113 38.5046 21.3571 37.0981 21.3571 33.9184C21.3571 30.5552 16.6929 29.4545 14.1153 28.7207C6.62807 26.5193 1.71839 24.6237 1.71839 15.7571C1.71839 6.46239 8.34646 0.408615 17.5521 0.408615C22.155 0.408615 27.8625 1.8762 31.913 4.19987L27.1874 13.3723Z" fill="white"/>
<path d="M56.2158 11.6602V19.3038H69.6561V29.3935H56.2158V37.2817H70.4539V47.3713H44.3098V1.63171H70.4539V11.7213L56.2158 11.6602Z" fill="white"/>
<path d="M79.2914 1.63171H96.2298C108.995 1.63171 119.551 11.6602 119.551 24.5015C119.551 37.3429 108.934 47.3713 96.2298 47.3713H79.2914V1.63171ZM91.2587 37.2817H93.9591C101.078 37.2817 107.154 33.3682 107.154 24.5015C107.154 16.3075 101.753 11.7213 94.0818 11.7213H91.2587V37.2817Z" fill="white"/>
<path d="M175.951 23.6453C175.951 38.4434 165.272 48.8999 150.543 48.8999C135.814 48.8999 125.136 38.4434 125.136 23.6453C125.136 9.82554 137.348 0.102814 150.543 0.102814C163.738 0.102814 175.951 9.82554 175.951 23.6453ZM137.533 23.7064C137.533 31.5947 143.363 37.3427 150.482 37.3427C157.601 37.3427 163.431 31.5947 163.431 23.7064C163.431 17.408 157.601 11.5989 150.482 11.5989C143.424 11.5989 137.533 17.408 137.533 23.7064Z" fill="white"/>
<path d="M182.272 1.63171H194.239L216.087 29.6381H216.21V1.63171H228.178V47.3713H216.21L194.362 19.3038H194.239V47.3713H182.272V1.63171Z" fill="white"/>
<path d="M249.842 39.4219L246.65 47.3713H234.008L251.683 1.63171H264.693L282 47.3713H269.296L266.289 39.4219H249.842ZM258.188 15.7572H258.065L253.156 30.3107H263.098L258.188 15.7572Z" fill="white"/>
</svg>

<!-- Иконка "Because the Grand Canyon sucks" -->
<svg id="because-the-grand-canyon-sucks-icon" viewBox="0 0 174 46">
<path d="M14.2196 7.92588C18.9451 6.336 19.252 0.465668 14.6492 0.465668C13.3604 0.465668 11.8261 1.3829 10.7828 3.15623L4.52294 13.9796C4.21608 14.4688 3.9706 14.8969 3.60237 15.3249C2.00672 13.1235 2.43632 9.82149 4.70705 8.35391L3.78648 7.19208C-1.1232 10.3107 0.349703 19.2385 8.51205 19.2385C15.447 19.2385 18.6996 10.9222 14.2196 7.92588ZM8.45068 17.4651C7.03914 17.4651 5.99584 17.1594 5.07527 16.6702C5.50487 16.181 5.8731 15.6307 6.24132 15.0192L10.1691 8.23162L10.7828 8.29276C16.2448 9.45459 14.0968 17.4651 8.45068 17.4651ZM10.9669 6.88633L12.8694 3.64543C14.5878 0.710272 16.7358 2.42243 15.5697 4.62381C14.6492 6.33598 13.3604 6.82518 10.9669 6.88633Z" fill="white"/>
<path d="M33.9196 15.4482C33.5514 16.7935 34.2878 17.9553 35.8221 17.9553C36.7427 17.9553 37.9087 17.3439 39.0748 16.4266C39.1975 17.3439 39.9339 17.9553 41.1 17.9553C42.3274 17.9553 43.6776 17.0993 45.0278 15.8763C44.7823 17.0993 45.3346 17.9553 46.5007 17.9553C47.7894 17.9553 49.201 16.7935 50.3057 15.754C50.0602 16.977 50.7966 17.9553 52.2695 17.9553C54.172 17.9553 56.3814 15.8763 58.3453 13.6749C58.3453 13.6138 58.2839 13.6137 58.2839 13.5526C59.5727 12.085 60.6774 10.4951 61.5366 9.39446C60.616 11.7793 61.107 16.1209 58.8976 16.1209C58.0998 16.1209 57.7929 15.2648 57.7929 15.2648L56.32 15.9986C56.32 15.9986 56.7496 17.8942 58.8976 17.8942C59.1431 17.8942 59.3272 17.8942 59.5727 17.833H59.6341C61.3525 17.5884 63.0095 16.5489 64.4824 15.2648C64.5437 16.7935 65.7098 17.8942 67.6123 17.8942C70.2513 17.8942 72.8902 15.8151 74.7927 13.6138C74.6086 13.308 74.2404 12.9411 73.9335 12.8188L73.7494 13.0023C72.0924 14.959 69.9444 16.4878 68.2874 16.4878C66.8758 16.4878 66.0166 15.5705 67.06 13.7361L67.3054 13.308C68.7784 13.9195 71.6014 13.6138 73.3812 10.6174L73.688 10.0671C74.9155 7.92688 73.7494 6.337 71.8469 6.337C69.9444 6.337 68.4715 7.31538 67.4896 9.02756L65.2188 12.88H65.1575L64.9733 13.0634C64.1142 14.0418 63.0708 14.959 62.1503 15.5705C62.8867 13.3692 62.7026 9.94481 64.1755 7.00965L62.4571 6.09241C61.4752 7.43769 59.3886 10.434 57.302 12.88L57.3633 12.9411L57.302 13.0634C55.6449 15.0202 53.9879 16.5489 52.9446 16.5489C52.4536 16.5489 52.1468 16.182 52.6991 15.2648L57.6702 6.58159H55.3381L51.2262 13.7972C49.4465 15.3871 48.0963 16.3043 47.6667 16.1209C47.1144 15.8763 47.6667 15.0202 47.9736 14.531L52.515 6.64275H50.1829L46.5007 13.0023C46.4393 12.9411 46.3779 12.9411 46.3165 12.88L46.1324 13.0634C44.4754 15.0202 42.8184 16.5489 41.7751 16.5489C41.2841 16.5489 40.9773 16.182 41.5296 15.2648L45.2732 8.72182H43.9231C43.9844 7.74343 43.0025 6.39815 41.4682 6.39815C40.2408 6.39815 38.461 7.37654 37.4791 9.08871L35.147 13.1246C35.0243 13.0023 34.9015 12.9411 34.7788 12.88L34.5947 13.0634C32.9377 15.0202 30.7897 16.5489 29.1326 16.5489C27.7211 16.5489 26.8619 15.6317 27.9052 13.7972L30.2987 9.63905C31.6489 7.31538 34.0423 7.74342 32.6308 10.1282L32.3239 10.6786H34.2264L34.5333 10.1282C35.7607 7.98802 34.5947 6.39815 32.6922 6.39815C30.7897 6.39815 29.3168 7.37654 28.3348 9.08871L26.0027 13.0634C25.9414 13.0023 25.88 13.0023 25.8186 12.9411L25.6345 13.1246C23.9775 15.0813 21.8295 16.6101 20.1725 16.6101C18.7609 16.6101 17.9017 15.6928 18.9451 13.8583L19.1905 13.4303C20.6634 14.0418 23.4865 13.736 25.2663 10.7397L25.5731 10.1894C26.8005 8.04917 25.6345 6.45929 23.732 6.45929C21.8295 6.45929 20.3566 7.43769 19.3746 9.14987L16.9198 13.308C15.4469 15.754 16.7357 18.0776 19.4974 18.0776C21.5226 18.0776 23.6092 16.8547 25.2663 15.2648C25.2049 16.8547 26.4323 18.0776 28.3962 18.0776C30.3601 17.9553 32.2626 16.8547 33.9196 15.4482ZM69.5148 9.5779C70.865 7.25423 73.2584 7.68229 71.8469 10.0671L71.54 10.6174C70.4354 12.5131 68.9011 12.4519 68.0419 12.1462L69.5148 9.5779ZM36.2517 15.2648L39.5044 9.63905C40.7318 7.49883 43.248 8.04917 42.0819 10.1282L40.2408 13.308C38.8293 15.5094 37.4177 16.5489 36.4972 16.5489C36.0062 16.4878 35.6993 16.182 36.2517 15.2648ZM21.3999 9.5779C22.7501 7.25423 25.1435 7.68229 23.732 10.0671L23.4251 10.6174C22.3205 12.5131 20.7862 12.4519 19.927 12.1462L21.3999 9.5779Z" fill="white"/>
<path d="M100.323 17.954C102.962 17.954 105.601 15.8749 107.503 13.6736C107.319 13.3678 106.951 13.0009 106.644 12.8786L106.46 13.0621C104.803 15.0189 102.655 16.5476 100.998 16.5476C99.5866 16.5476 98.7274 15.6303 99.7707 13.7959L100.016 13.3678C101.489 13.9793 104.312 13.6736 106.092 10.6773L106.399 10.1269C107.626 7.98668 106.46 6.39682 104.558 6.39682C102.655 6.39682 101.182 7.3752 100.2 9.08738L97.9296 12.9398C97.9296 12.9398 97.8682 12.9398 97.8682 12.8786L97.6841 13.0621C96.0271 15.0189 94.37 16.5476 93.3267 16.5476C92.8358 16.5476 92.5289 16.1807 93.0812 15.2635L96.4567 9.39312C97.4386 7.6198 96.518 6.33566 95.2292 6.33566C94.2473 6.33566 93.1426 6.886 91.9766 8.10899L95.7202 1.68832H93.3267L86.76 13.0009C86.6987 12.9398 86.5759 12.8786 86.5145 12.8175L86.3304 13.0009C84.6734 14.9577 83.0164 16.4864 81.9731 16.4864C81.4821 16.4864 81.1753 16.1195 81.7276 15.2023L86.6986 6.5191H88.6012L89.2762 5.41843H87.3737L89.5831 1.62717H87.251L85.0416 5.41843H82.955L82.2799 6.5191H84.4279L79.7637 14.5908C78.7818 16.303 79.4569 17.8929 81.3594 17.8929C82.5254 17.8929 83.7528 17.1591 85.0416 16.0584L84.1211 17.6483H86.4532L90.0127 11.5333C93.5722 7.06945 95.1679 7.61979 94.1859 9.33197L91.1787 14.5908C90.1968 16.303 90.8719 17.8929 92.7744 17.8929C94.1859 17.8929 95.7816 16.7922 97.2545 15.3246C97.2545 16.8533 98.4205 17.954 100.323 17.954ZM102.226 9.57656C103.576 7.25289 105.969 7.68095 104.558 10.0658L104.251 10.6161C103.146 12.5117 101.612 12.4506 100.753 12.1448L102.226 9.57656Z" fill="white"/>
<path d="M170.9 12.8791L170.716 13.0626C169.059 15.0193 167.402 16.548 166.358 16.548C165.867 16.548 165.561 16.1812 166.113 15.2639L173.968 1.6888H171.636L168.199 7.55913C167.77 6.88649 167.033 6.33614 166.051 6.33614C164.824 6.33614 163.044 7.31453 162.062 9.0267L159.792 12.9402C159.73 12.9402 159.669 12.8791 159.669 12.8791L159.485 13.0626C157.828 15.0193 156.171 16.548 155.127 16.548C154.636 16.548 154.33 16.1812 154.882 15.2639L158.257 9.3936C159.239 7.62028 158.319 6.33614 157.03 6.33614C156.048 6.33614 154.943 6.88648 153.777 8.04831L154.636 6.51958H152.304L148.561 12.9402C148.499 12.8791 148.438 12.818 148.315 12.818L148.131 13.0014C146.474 14.9582 144.817 16.4869 143.774 16.4869C143.283 16.4869 142.976 16.12 143.528 15.2028L147.272 8.65981H146.106C146.167 7.68142 145.185 6.33614 143.651 6.33614C142.424 6.33614 140.644 7.31453 139.662 9.0267L137.391 12.8791L137.268 13.0014C135.611 14.9582 133.954 16.4869 132.911 16.4869C132.42 16.4869 132.113 16.12 132.666 15.2028L134.998 11.1669C135.796 9.7605 135.427 8.96555 134.691 8.04831L133.402 6.45843C133.095 6.03039 133.095 5.5412 133.525 5.11316L132.297 3.76787C130.947 4.9297 130.886 6.275 131.684 7.31453L131.868 7.55913C130.824 9.02671 129.474 10.9835 127.94 12.7568C128.001 12.818 128.063 12.8791 128.124 12.9402C126.222 15.1416 124.565 16.5481 122.724 17.343L125.669 12.3288H123.399L123.153 12.7568C121.926 14.897 120.514 16.4869 118.673 16.4869C117.077 16.4869 116.771 14.897 118.182 12.5122L118.857 11.3504C119.287 11.4115 119.716 11.4727 120.207 11.4727C128.492 11.4727 132.482 0.404663 125.178 0.404663C123.89 0.404663 122.355 1.3219 121.312 3.09522L117.691 9.33245C116.341 8.59866 115.604 7.31453 115.604 6.0304C115.604 4.92971 116.095 3.89016 117.077 3.09522L116.341 1.74995C114.684 2.91179 113.947 4.50167 113.947 6.09155C113.947 7.92603 114.991 9.69935 116.893 10.6777L116.218 11.9007C114.561 14.7136 114.868 17.8322 118.182 17.8322C119.164 17.8322 120.023 17.5265 120.698 17.0984L120.085 18.1379C116.955 19.1163 114.991 20.3393 114.991 22.1126C114.991 24.314 118.428 24.8032 120.085 21.9292L121.864 18.8717C124.258 18.1379 126.651 16.4869 129.229 13.4906C129.167 13.4294 129.167 13.3683 129.106 13.246C130.149 12.023 131.009 10.8612 132.788 8.47637L133.095 8.84326C133.402 9.21016 133.525 9.69934 133.218 10.1885L130.763 14.469C129.781 16.1812 130.456 17.771 132.359 17.771C133.525 17.771 134.814 17.0372 136.041 15.9366C136.041 16.9761 136.716 17.771 138.066 17.771C138.987 17.771 140.153 17.1595 141.319 16.2423C141.442 17.1595 142.178 17.771 143.344 17.771C144.449 17.771 145.676 17.0984 146.842 16.0589L145.983 17.5264H148.315L151.875 11.3504C155.434 6.88647 157.03 7.49797 155.987 9.21014L152.979 14.469C151.998 16.1812 152.673 17.771 154.575 17.771C155.802 17.771 157.153 16.915 158.503 15.7531C158.38 16.915 159.117 17.771 160.528 17.771C161.449 17.771 162.615 17.1595 163.781 16.2423C163.903 17.1595 164.64 17.771 165.806 17.771C167.708 17.771 169.918 15.692 171.882 13.4906C171.636 13.3683 171.207 13.0014 170.9 12.8791ZM123.092 4.19592C123.767 3.03409 124.565 2.48373 125.178 2.48373C128.861 2.48373 126.283 10.0051 120.207 10.0051H119.716L123.092 4.19592ZM118.121 21.6846C117.63 22.5407 116.832 22.4184 116.832 21.8069C116.832 21.1954 117.384 20.5228 119.164 19.8501L118.121 21.6846ZM142.485 13.246C141.073 15.4474 139.662 16.4869 138.741 16.4869C138.25 16.4869 137.944 16.12 138.496 15.2028L141.749 9.57704C142.976 7.43682 145.492 7.98718 144.326 10.0662L142.485 13.246ZM165.008 13.1237C163.597 15.4474 162.185 16.4869 161.203 16.4869C160.712 16.4869 160.405 16.12 160.958 15.2028L164.21 9.57704C165.438 7.43682 167.954 7.98718 166.788 10.0662L165.008 13.1237Z" fill="white"/>
<path d="M93.1427 34.8925L92.9586 35.076C91.3016 37.0328 89.6446 38.5615 88.6013 38.5615C88.1103 38.5615 87.8034 38.1946 88.3558 37.2774L91.7312 31.407C92.7131 29.6337 91.7925 28.3496 90.5038 28.3496C89.5218 28.3496 88.4171 28.8999 87.2511 30.0617L88.1103 28.533H85.7782L82.0346 35.0148C81.9118 34.9537 81.8504 34.8925 81.7277 34.8314L81.5436 35.0148C80.5003 36.1767 79.2115 36.727 78.0454 36.727L80.2548 32.9358C81.6663 30.4898 80.3775 28.2273 78.1682 28.2273C76.3884 28.2273 74.9769 28.9611 73.6267 31.2847L72.4607 33.2415L71.4787 34.9537C71.4174 34.8925 71.356 34.8925 71.2946 34.8314L71.1105 35.0148C69.208 37.2162 67.551 38.6226 65.7099 39.4176L72.0924 28.533H69.7603L65.6485 35.6875C63.8687 37.3385 62.4572 38.2557 62.0276 38.0723C61.4752 37.8277 62.0276 36.9716 62.3344 36.4824L66.8759 28.5942H64.5438L60.8002 35.0148C60.7388 34.9537 60.6774 34.9537 60.6161 34.8925L60.4319 35.076C58.7749 37.0328 57.1179 38.5615 56.0746 38.5615C55.5836 38.5615 55.2768 38.1946 55.8291 37.2774L59.2045 31.407C60.1865 29.6337 59.2659 28.3496 57.9771 28.3496C56.9952 28.3496 55.8905 28.8999 54.7244 30.0617L55.5836 28.533H53.2515L49.5079 34.9537C49.4465 34.8925 49.3851 34.8314 49.2624 34.8314L49.0783 35.0148C47.4213 36.9716 45.7643 38.5003 44.721 38.5003C44.23 38.5003 43.9231 38.1334 44.4755 37.2162L48.2191 30.6732H46.8689C46.9303 29.6949 45.9484 28.3496 44.4141 28.3496C43.1867 28.3496 41.4069 29.328 40.425 31.0401L38.0315 35.1983C37.8474 35.076 37.6633 34.9537 37.5405 34.8925L37.3564 35.076C35.6994 37.0328 33.6128 38.5615 31.3421 38.5615C29.7464 38.5615 28.7645 36.9716 30.176 34.5868L30.8511 33.425C31.2807 33.4861 31.7103 33.5473 32.2013 33.5473C34.6561 33.5473 37.4792 32.2631 39.3203 29.0834C39.9954 27.9215 40.2409 26.882 40.2409 25.9648C40.2409 23.8857 38.8907 22.4792 37.1723 22.4792C35.8835 22.4792 34.3492 23.3965 33.3059 25.1698L29.685 31.407C28.3349 30.6732 27.5984 29.3891 27.5984 28.105C27.5984 27.0043 28.0894 25.9647 29.0713 25.1698L28.3349 23.8245C26.6779 24.9864 25.9414 26.5762 25.9414 28.1661C25.9414 30.0006 26.9847 31.7739 28.8872 32.7523L28.2121 33.9753C26.5551 36.7882 27.5371 39.9068 30.8511 39.9068C33.4287 39.9068 35.3925 38.7449 36.9882 37.2162C36.4972 38.6838 37.2337 39.9068 38.8907 39.9068C39.8113 39.9068 40.9773 39.2953 42.1434 38.378C42.2661 39.2953 43.0026 39.9068 44.1686 39.9068C45.2733 39.9068 46.5007 39.2341 47.6668 38.1946L46.8076 39.6622H49.1397L52.6992 33.4861C56.2587 29.0222 57.8544 29.6337 56.811 31.3459L53.8039 36.6047C52.8219 38.3169 53.497 39.9068 55.3995 39.9068C56.6269 39.9068 58.0385 39.0507 59.3886 37.8277C59.0818 39.1118 59.6955 39.9068 60.8615 39.9068C61.9662 39.9068 63.255 38.9895 64.2983 38.0111L63.0095 40.2125C59.8796 41.1298 57.8544 42.4139 57.8544 44.1872C57.8544 46.3886 61.2911 46.8778 62.9482 44.0038L64.7279 40.9463C66.6918 40.3348 68.5943 39.1118 70.6195 37.1551C70.3127 40.396 74.6087 41.1298 77.2476 37.8277H77.7386C78.5978 37.8277 79.7638 37.522 80.8071 36.9105L79.2729 39.601H81.6049L85.1645 33.425C88.724 28.9611 90.3196 29.5726 89.2763 31.2847L86.2692 36.5436C85.2872 38.2557 85.9623 39.8456 87.8648 39.8456C89.7673 39.8456 91.9767 37.7665 93.9405 35.5652C93.8792 35.3817 93.4496 35.0148 93.1427 34.8925ZM35.2084 26.2094C35.8835 25.0475 36.6813 24.4972 37.2951 24.4972C38.1542 24.4972 38.5838 25.0475 38.5838 25.9036C38.5838 28.0438 35.9449 31.9574 32.324 31.9574H31.833L35.2084 26.2094ZM43.4322 35.2594C42.0206 37.4608 40.6091 38.5003 39.6885 38.5003C39.1976 38.5003 38.8907 38.1334 39.443 37.2162L42.6957 31.5905C43.9231 29.4503 46.4393 30.0006 45.2733 32.0797L43.4322 35.2594ZM61.107 43.698C60.6161 44.5541 59.8182 44.4318 59.8182 43.8203C59.8182 43.2088 60.3706 42.5362 62.1503 41.8636L61.107 43.698ZM76.818 35.0148H76.6953C75.9588 35.0148 75.3451 35.6263 75.3451 36.4213C75.3451 36.727 75.4065 36.9716 75.5906 37.2162V37.2774C74.4859 39.173 71.847 38.8061 73.1971 36.3601L74.9769 33.3027L76.0816 31.407C77.7386 28.6553 79.9479 29.756 78.5364 32.1408L76.818 35.0148Z" fill="white"/>
<path d="M147.088 35.6884C146.965 35.3215 146.536 34.9546 146.229 34.8935L146.045 35.0769C145.185 36.0553 144.142 36.9726 143.221 37.5841C143.958 35.3827 143.774 31.9583 145.247 29.0232L143.528 28.1059C142.546 29.4512 140.46 32.4475 138.373 34.8935L138.189 35.0769C136.532 37.0337 134.875 38.5624 133.832 38.5624C133.341 38.5624 132.85 38.0733 132.85 36.9726V35.9942C134.507 36.1776 136.225 35.1381 137.33 33.2425L137.944 32.1418C140.092 28.4117 136.593 27.1887 134.2 29.3901L137.514 23.642H135.182L128.554 35.1381C128.431 35.0158 128.247 34.8935 128.124 34.8323L127.94 35.0158C126.283 36.9726 124.135 38.5013 122.478 38.5013C121.067 38.5013 120.207 37.5841 121.251 35.7496L123.644 31.5914C124.994 29.2678 127.388 29.6958 125.976 32.0806L125.669 32.631H127.572L127.879 32.0806C129.106 29.9404 127.94 28.3505 126.038 28.3505C124.135 28.3505 122.662 29.3289 121.68 31.0411L119.409 34.9546C119.348 34.9546 119.287 34.8935 119.287 34.8935L119.103 35.0769C117.446 37.0337 115.789 38.5624 114.745 38.5624C114.254 38.5624 113.947 38.1956 114.5 37.2783L119.471 28.5951H117.139L113.027 35.8107C111.247 37.4006 109.897 38.3178 109.467 38.1344C108.915 37.8898 109.467 37.0337 109.774 36.5445L114.316 28.6563H111.984L107.442 36.4222C106.951 36.8503 106.399 37.2783 105.969 37.6452C106.706 35.4438 106.522 32.0195 107.994 29.0843L106.276 28.1671C105.294 29.5123 99.9549 36.6057 97.8069 39.0516C97.991 39.3574 98.3592 39.602 98.6661 39.8466C100.016 38.3178 104.435 32.631 105.233 31.5303C104.312 33.9151 104.803 38.2567 102.594 38.2567C101.796 38.2567 101.489 37.4006 101.489 37.4006L100.016 38.1344C100.016 38.1344 100.446 40.03 102.594 40.03C102.839 40.03 103.023 40.03 103.269 39.9689H103.33C104.496 39.7854 105.662 39.2962 106.767 38.5013C106.767 39.4185 107.319 40.03 108.301 40.03C109.59 40.03 111.002 38.8682 112.106 37.8287C111.861 39.0516 112.597 40.03 114.07 40.03C115.543 40.03 117.139 38.8682 118.673 37.3394C118.673 38.8682 119.9 40.03 121.803 40.03C123.705 40.03 125.547 38.9905 127.204 37.5841L125.915 39.8466H128.247L130.886 35.2604V37.0949C130.886 39.0516 131.254 40.0912 133.157 40.0912C135.059 40.0912 137.268 38.0121 139.232 35.8107C140.583 34.282 141.687 32.6921 142.546 31.5914C141.626 33.9762 142.117 38.3178 139.907 38.3178C139.11 38.3178 138.803 37.4618 138.803 37.4618L137.33 38.1956C137.33 38.1956 137.759 40.0912 139.907 40.0912C140.153 40.0912 140.337 40.0912 140.583 40.03H140.644C142.976 39.602 145.369 37.7064 147.088 35.6884ZM131.622 33.854L132.297 32.6921C134.998 28.962 136.839 30.0016 135.98 31.408L134.875 33.3036C134.2 34.5266 132.175 35.3827 131.622 33.854Z" fill="white"/>
<path d="M147.026 37.2781C146.29 37.2781 145.676 37.8896 145.676 38.6233C145.676 39.3571 146.229 39.9686 147.026 39.9686C147.763 39.9686 148.377 39.4183 148.377 38.6233C148.377 37.8896 147.763 37.2781 147.026 37.2781Z" fill="white"/>
<path d="M147.149 36.3602H149.481L156.785 23.7023H154.452L147.149 36.3602Z" fill="white"/>
</svg>

<!-- Декоративное изображение треугольника для мобильного -->
<svg id="intro-triangle" viewBox="0 0 1200 57">
<path fill="#fff" d="M249.6 23.7 0 0v57h600L249.6 0v23.7ZM950.4 23.7V0L600 57h599.9V0L950.4 23.7Z"/>
</svg>

<!-- Декоративное изображение треугольника для текста -->
<svg id="intro-triangle-text" viewBox="0 0 320 37">
<mask id="mask0_29492_888" style="mask-type:alpha" maskUnits="userSpaceOnUse" x="0" y="0" width="320" height="37">
<rect width="320" height="37" fill="#C4C4C4"/>
</mask>
<g mask="url(#mask0_29492_888)">
<path fill-rule="evenodd" clip-rule="evenodd" d="M-225 0H159V37L-225 0Z" fill="white"/>
<path fill-rule="evenodd" clip-rule="evenodd" d="M543 0H159V37L543 0Z" fill="white"/>
</g>
</svg>


<!-- Иконка домика для списка приемушеств -->
<svg id="list-icon-house" viewBox="0 0 40 38">
<path d="M15.9015 33.8041H24.2549V21.646H15.9015V33.8041ZM22.7408 32.3289H17.4155V23.1212H22.6886V32.3289H22.7408Z" fill="#81B3D2"/>
<path d="M38.4036 20.6278L39.5 19.5595L34.3313 14.5233V0.7882H27.1265V7.50314L19.9739 0.584717L0.5 19.6104L1.59639 20.6787L5.66867 16.7108V35.9399H3.63253V37.4152H36.994V35.9399H34.3313V16.6599L38.4036 20.6278ZM28.6406 2.31432H32.7651V13.0481L28.6406 9.02927V2.31432ZM32.8173 35.889H7.23494V15.1846L19.9739 2.72129L32.7651 15.1846V35.889H32.8173Z" fill="#81B3D2"/>
<path d="M16.0582 14.4216C16.0582 16.609 17.8855 18.3895 20.0783 18.3895C22.3233 18.3895 24.1506 16.609 24.1506 14.4216C24.1506 12.2341 22.3233 10.5045 20.0783 10.5045C17.8333 10.5045 16.0582 12.2341 16.0582 14.4216ZM20.0783 11.878C21.4879 11.878 22.6888 12.9972 22.6888 14.4216C22.6888 15.7951 21.5402 16.9651 20.0783 16.9651C18.6687 16.9651 17.4679 15.846 17.4679 14.4216C17.4679 13.0481 18.6687 11.878 20.0783 11.878Z" fill="#81B3D2"/>
<path d="M10.8895 21.646H9.32324V23.63H10.8895V21.646Z" fill="#81B3D2"/>
<path d="M13.9698 21.646H12.4036V23.63H13.9698V21.646Z" fill="#81B3D2"/>
<path d="M10.8895 24.6975H9.32324V26.6815H10.8895V24.6975Z" fill="#81B3D2"/>
<path d="M13.9698 24.6975H12.4036V26.6815H13.9698V24.6975Z" fill="#81B3D2"/>
<path d="M27.5443 21.646H25.978V23.63H27.5443V21.646Z" fill="#81B3D2"/>
<path d="M30.6769 21.646H29.1106V23.63H30.6769V21.646Z" fill="#81B3D2"/>
<path d="M27.5443 24.6975H25.978V26.6815H27.5443V24.6975Z" fill="#81B3D2"/>
<path d="M30.6769 24.6975H29.1106V26.6815H30.6769V24.6975Z" fill="#81B3D2"/>
</svg>

<!-- Иконка гамбургера для списка приемушеств -->
<svg id="list-icon-burger" viewBox="0 0 40 36">
<path d="M37.7428 23.8505H2.25722C0.997375 23.8505 0 24.8635 0 26.0285V27.8014C0 28.9664 0.997375 29.9288 2.25722 29.9288H2.78215V30.4354C2.78215 33.2213 5.14436 35.45 7.979 35.45H32.021C34.9081 35.45 37.2178 33.1706 37.2178 30.4354V29.9288H37.7428C38.9501 29.9288 40 28.9664 40 27.7508V25.9779C40 24.8635 39.0026 23.8505 37.7428 23.8505ZM35.6955 30.4354C35.6955 32.3602 34.0682 33.9304 32.0735 33.9304H7.92651C5.93176 33.9304 4.30446 32.3602 4.30446 30.4354V29.9288H35.6955V30.4354ZM38.4252 27.7508C38.4252 28.1053 38.1102 28.4092 37.7428 28.4092H2.25722C1.88976 28.4092 1.5748 28.1053 1.5748 27.7508V25.9779C1.5748 25.674 1.88976 25.3701 2.25722 25.3701H37.7953C38.1627 25.3701 38.4777 25.674 38.4777 26.0285V27.7508H38.4252Z" fill="#81B3D2"/>
<path d="M8.50395 19.7473L11.3386 21.7735L14.2257 19.7473L17.1129 21.7735L20 19.7473L22.8347 21.7735L25.7218 19.7473L28.6089 21.7735L31.4961 19.7473L34.3832 21.7735L37.6903 19.3928L36.7979 18.1771L34.3832 19.8486L31.4961 17.8225L28.6089 19.8486L25.7218 17.8225L22.8347 19.8486L20 17.8225L17.1129 19.8486L14.2257 17.8225L11.3386 19.8486L8.50395 17.8225L5.61682 19.8486L3.20212 18.1771L2.25723 19.3928L5.61682 21.7735L8.50395 19.7473Z" fill="#81B3D2"/>
<path d="M37.2179 16.3032C37.2179 15.9993 37.2704 14.9862 37.2179 14.7836C36.8504 6.88169 29.2913 0.550049 20 0.550049C10.7087 0.550049 3.09712 6.88169 2.72967 14.7836C2.72967 14.9862 2.72967 15.9993 2.72967 16.3032H37.2179ZM20 2.06964C28.399 2.06964 35.3281 7.74279 35.6431 14.7836H4.30447C4.67193 7.74279 11.6011 2.06964 20 2.06964Z" fill="#81B3D2"/>
<path d="M20 9.16113C20.5798 9.16113 21.0499 8.70757 21.0499 8.14807C21.0499 7.58857 20.5798 7.13501 20 7.13501C19.4202 7.13501 18.9501 7.58857 18.9501 8.14807C18.9501 8.70757 19.4202 9.16113 20 9.16113Z" fill="#81B3D2"/>
<path d="M15.8005 6.67871C16.3803 6.67871 16.8504 6.22515 16.8504 5.66565C16.8504 5.10615 16.3803 4.65259 15.8005 4.65259C15.2207 4.65259 14.7506 5.10615 14.7506 5.66565C14.7506 6.22515 15.2207 6.67871 15.8005 6.67871Z" fill="#81B3D2"/>
<path d="M24.1995 6.67871C24.7793 6.67871 25.2493 6.22515 25.2493 5.66565C25.2493 5.10615 24.7793 4.65259 24.1995 4.65259C23.6196 4.65259 23.1496 5.10615 23.1496 5.66565C23.1496 6.22515 23.6196 6.67871 24.1995 6.67871Z" fill="#81B3D2"/>
</svg>

<!-- Иконка подарочной коробки для списка приемушеств -->
<svg id="list-icon-gift-box" viewBox="0 0 32 38">
<path d="M30.5778 11.2058H30.527H18.1841C25.0921 7.76156 25.6508 5.58358 25.3968 4.36796C24.8381 2.39259 22.5524 0.873068 20.419 1.68348C17.6254 2.74714 16.8635 6.9005 16.1016 9.88889C15.1365 6.84985 14.2222 3.0004 12.0381 1.02502C11.4286 0.467863 10.5143 -0.0892942 9.14286 0.0120071C7.11111 0.21461 4.21587 2.69649 5.43492 5.48228C6.55238 8.16676 10.2603 9.88888 12.7492 11.2565H1.42222C0.609524 11.2565 0 11.9149 0 12.6747V18.3475C0 19.158 0.660317 19.7658 1.42222 19.7658H1.5746V38H30.527V19.7658H30.5778C31.3905 19.7658 32 19.1073 32 18.3475V12.6747C32 11.8643 31.3397 11.2058 30.5778 11.2058ZM21.2317 2.94975C22.2984 2.79779 23.7206 3.6082 23.873 4.57057C24.0762 5.93813 22.1968 7.2044 21.3333 7.76156C20.0635 8.62262 18.8444 9.07847 17.6762 9.78758C18.0825 7.91351 18.946 3.25365 21.2317 2.94975ZM9.75238 7.91351C8.63492 7.15375 6.50159 5.68488 6.55238 4.01341C6.60317 2.18999 9.44762 0.721116 10.9714 2.08868C12.9016 3.76016 13.8159 7.66026 14.527 10.3954C12.9016 9.58498 11.3778 8.97717 9.75238 7.91351ZM12.7492 36.4805H3.04762V19.7658H12.7492V36.4805ZM12.7492 18.2462H1.52381V12.7253H12.7492V18.2462ZM17.8286 36.4805H14.2222V12.7253H17.8286V36.4805ZM29.0032 36.4805H19.3524V19.7658H29.054V36.4805H29.0032ZM30.4762 18.2462H19.3524V12.7253H30.4762V18.2462Z" fill="#81B3D2"/>
</svg>

<!-- Иконки социальных сетей: -->
<!-- Иконка вКонтакте -->
<svg id="vkontakte-icon" viewBox="0 0 24 14">
<path fill-rule="evenodd" clip-rule="evenodd" d="M23.45 0.948C23.616 0.402 23.45 0 22.655 0H20.03C19.362 0 19.054 0.347 18.887 0.73C18.887 0.73 17.552 3.926 15.661 6.002C15.049 6.604 14.771 6.795 14.437 6.795C14.27 6.795 14.019 6.604 14.019 6.057V0.948C14.019 0.292 13.835 0 13.279 0H9.151C8.734 0 8.483 0.304 8.483 0.593C8.483 1.214 9.429 1.358 9.526 3.106V6.904C9.526 7.737 9.373 7.888 9.039 7.888C8.149 7.888 5.984 4.677 4.699 1.003C4.45 0.288 4.198 0 3.527 0H0.9C0.15 0 0 0.347 0 0.73C0 1.412 0.89 4.8 4.145 9.281C6.315 12.341 9.37 14 12.153 14C13.822 14 14.028 13.632 14.028 12.997V10.684C14.028 9.947 14.186 9.8 14.715 9.8C15.105 9.8 15.772 9.992 17.33 11.467C19.11 13.216 19.403 14 20.405 14H23.03C23.78 14 24.156 13.632 23.94 12.904C23.702 12.18 22.852 11.129 21.725 9.882C21.113 9.172 20.195 8.407 19.916 8.024C19.527 7.533 19.638 7.314 19.916 6.877C19.916 6.877 23.116 2.451 23.449 0.948H23.45Z" fill="white"/>
</svg>

<!-- Иконка Телеграм -->
<svg id="telegram-icon" viewBox="0 0 22 18">
<path d="M21.4393 1.62225L18.2705 16.566C18.0313 17.6205 17.408 17.883 16.5223 17.3865L11.6938 13.8285L9.36425 16.0695C9.10626 16.3275 8.891 16.5428 8.39375 16.5428L8.741 11.6258L17.6893 3.54C18.0785 3.1935 17.6045 3.00075 17.0848 3.348L6.02225 10.314L1.25976 8.823C0.224006 8.49975 0.205256 7.78725 1.47576 7.29L20.1035 0.113253C20.966 -0.209997 21.7205 0.305253 21.4393 1.623V1.62225Z" fill="white"/>
</svg>

<!-- Иконка ЮТуб -->
<svg id="youtube-icon" viewBox="0 0 20 14">
<path d="M17.1813 0H2.81331C1.30618 0 0 1.3 0 2.8V11.1C0 12.7 1.30618 14 2.81331 14H17.1813C18.7889 14 19.9946 12.7 19.9946 11.2V2.8C20.095 1.3 18.7889 0 17.1813 0ZM7.03326 10.4V3.6L13.8656 7L7.03326 10.4Z" fill="white"/>
</svg>

<!-- Логотип HTML Academy в футере -->
<svg id="htmlacademy" viewBox="0 0 28 33" xmlns="http://www.w3.org/2000/svg">
<path d="M14.1506 0.25H14.0502L0.5 1.58944V25.221L14.0502 32.875L27.5 25.221V1.58944L14.1506 0.25ZM25.5929 11.8266L14.0502 5.32075V5.22507H13.9498L13.8494 5.1294V5.22507L2.40706 11.8266V3.21591L13.9498 2.06782L25.5929 3.21591V11.8266ZM13.9498 6.75587L25.4926 13.1661L20.9758 15.6536L13.8494 11.6353V12.9747L19.7714 16.3233L18.868 16.8017L13.8494 13.9315V15.2709L17.6636 17.4714L16.8606 17.9498L13.8494 16.2276V17.5671L15.7565 18.6195L13.9498 19.6719L2.50743 13.2617L13.9498 6.75587ZM2.40706 14.6968L13.8494 21.2027V22.1595L5.92007 17.6628V19.0022L13.9498 23.5946V24.647L5.92007 20.1503V21.4897L13.9498 26.0821L22.0799 21.3941V16.419L25.4926 14.5055V24.0729L13.9498 30.6745L2.40706 24.1686V14.6968Z" fill="currentColor"/>
</svg>

<!-- Иконка палец вверх для страницы "Фото и видео" -->
<svg id="like-icon" viewBox="0 0 23 21" >
<path d="M12.9636 3.78L12.3364 6.825L11.7091 9.45H14.3227H20.8045V11.55C20.8045 11.55 20.8045 11.55 20.8045 11.655L17.7727 18.9H8.36364V8.4L12.9636 3.78ZM2.09091 10.5V18.9V10.5ZM13.8 0L6.9 6.93C6.48182 7.245 6.27273 7.77 6.27273 8.4V18.9C6.27273 20.055 7.21364 21 8.36364 21H17.7727C18.6091 21 19.3409 20.475 19.6545 19.74L22.7909 12.285C22.8955 12.075 22.8955 11.76 22.8955 11.55V9.45H23C23 8.295 22.0591 7.35 20.9091 7.35H14.3227L15.3682 2.52V2.205C15.3682 1.785 15.1591 1.365 14.95 1.05L13.8 0ZM4.18182 8.4H0V21H4.18182V8.4Z" fill="currentColor"/>
</svg>

<!-- Иконка "треугольник" для превью видео  -->
<svg id="video-triangle-icon" viewBox="0 0 48 54">
<path d="M48 27L0 54L2.42273e-06 0L48 27Z" fill="white" fill-opacity="0.7"/>
</svg>

<!-- Иконка "трубка телефона" для формы -->
<svg id="phone-icon" viewBox="0 0 18 18">
<path d="M3.6 7.8C5 10.6 7.4 12.9 10.2 14.4L12.4 12.2C12.7 11.9 13.1 11.8 13.4 12C14.5 12.4 15.7 12.6 17 12.6C17.6 12.6 18 13 18 13.6V17C18 17.6 17.6 18 17 18C7.6 18 0 10.4 0 1C0 0.4 0.4 0 1 0H4.5C5.1 0 5.5 0.4 5.5 1C5.5 2.2 5.7 3.4 6.1 4.6C6.2 4.9 6.1 5.3 5.9 5.6L3.6 7.8Z" fill="#010101"/>
</svg>

<!-- Иконка "письмо" для формы -->
<svg id="mail-icon" viewBox="0 0 16 12">
<path d="M8 8C7.7 8 7.5 7.9 7 7.7L0 4V11C0 11.5 0.5 12 1 12H15C15.5 12 16 11.5 16 11V4L9 7.7C8.5 7.9 8.3 8 8 8ZM15 0H1C0.5 0 0 0.5 0 1V1.8L8 6L16 1.8V1C16 0.5 15.5 0 15 0Z" fill="black"/>
</svg>


</svg>
