<svg xmlns="http://www.w3.org/2000/svg"><style>:root svg:not(:target){display:none}</style><svg fill="none" id="because-the-grand-canyon-sucks-icon" viewBox="0 0 296 80"><path fill="#fff" fill-rule="evenodd" d="M6.46 7.6c0 .3-.1.6-.2.9-.1.3-.3.6-.5.8-.2.2-.5.4-.8.6-.3.1-.7.2-1.1.2-.5 0-.91-.1-1.31-.3-.4-.2-.8-.4-1.1-.7a2.44 2.44 0 0 1-.5-.76l-.1-.24c-.1-.4-.2-.8-.2-1.3 0-.9.2-1.6.5-2.4.3-.7.7-1.4 1.3-1.9.2-.2.5-.5.8-.7.3-.2.6-.4.9-.5.2-.06.34-.16.48-.26L4.86.9l.19-.08a.53.53 0 0 0 .2-.12l1.41 2-.2.1c-.18.07-.39.16-.6.3-.3.1-.6.3-.9.5-.3.2-.5.5-.7.8-.2.3-.3.6-.3 1 .7 0 1.2.2 1.7.6.6.3.8.9.8 1.6Zm7.93 0c0 .3-.1.6-.2.9-.1.3-.3.6-.5.8-.2.2-.5.4-.8.6-.3.1-.71.2-1.11.2-.5 0-.9-.1-1.3-.3-.4-.2-.8-.4-1.1-.7-.2-.3-.41-.6-.61-1-.1-.4-.2-.8-.2-1.3 0-.9.2-1.6.5-2.4.3-.7.7-1.4 1.3-1.9.2-.2.5-.5.8-.7.3-.2.6-.4.91-.5.19-.06.34-.16.47-.26l.23-.14.2-.08a.53.53 0 0 0 .2-.12l1.4 2-.2.1c-.17.07-.38.16-.6.3-.3.1-.6.3-.9.5-.3.2-.5.5-.7.8-.2.3-.3.6-.3 1 .7 0 1.2.2 1.7.6.5.3.8.9.8 1.6Zm275.7 18.5.3-.3c.29.12.64.36.97.6.24.16.46.32.63.4-3.2 3.6-6.82 7-9.93 7-1.9 0-3.11-1-3.31-2.5-1.9 1.5-3.81 2.5-5.32 2.5-2.3 0-3.51-1.4-3.31-3.3-2.2 1.9-4.42 3.3-6.42 3.3-3.11 0-4.21-2.6-2.61-5.4l4.92-8.6c1.7-2.8-.9-3.8-6.72 3.5l-5.82 10.1h-3.82l1.4-2.4c-1.9 1.7-3.9 2.8-5.71 2.8-1.9 0-3.11-1-3.31-2.5-1.9 1.5-3.81 2.5-5.32 2.5-2.2 0-3.31-1.3-3.31-3-2 1.8-4.11 3-6.02 3-3.1 0-4.21-2.6-2.6-5.4l4-7c.5-.8.3-1.6-.2-2.2l-.5-.6-.47.63c-2.6 3.48-3.94 5.28-5.55 7.17l.09.2c.03.08.05.14.11.2-4.21 4.9-8.12 7.6-12.03 8.8l-2.91 5c-2.71 4.7-8.33 3.9-8.33.3 0-2.9 3.2-4.9 8.32-6.5l1-1.7c-1.1.7-2.5 1.2-4.1 1.2-5.42 0-5.92-5.1-3.22-9.7l1.1-2a8.47 8.47 0 0 1-4.8-7.5c0-2.6 1.2-5.2 3.9-7.1l1.21 2.2a6.1 6.1 0 0 0-2.4 4.8c0 2.1 1.2 4.2 3.4 5.4l5.92-10.2c1.7-2.9 4.22-4.4 6.32-4.4 11.94 0 5.42 18.1-8.12 18.1-.8 0-1.5-.1-2.21-.2l-1.1 1.9c-2.31 3.9-1.81 6.5.8 6.5 3 0 5.31-2.6 7.32-6.1l.4-.7h3.72l-4.82 8.2c3-1.3 5.72-3.6 8.83-7.2l-.3-.3c2.23-2.58 4.22-5.39 5.83-7.67l.59-.83-.3-.4c-1.3-1.7-1.2-3.9 1-5.8l2 2.2c-.7.7-.7 1.5-.2 2.2l2.11 2.6c1.2 1.5 1.8 2.8.5 5.1l-3.8 6.6c-.91 1.5-.4 2.1.4 2.1 1.7 0 4.4-2.5 7.12-5.7l.2-.2 3.71-6.3c1.6-2.8 4.51-4.4 6.52-4.4 2.5 0 4.11 2.2 4.01 3.8h1.91l-6.12 10.7c-.9 1.5-.4 2.1.4 2.1 1.7 0 4.42-2.5 7.13-5.7l.3-.3c.2 0 .3.1.4.2l6.12-10.5h3.8l-1.4 2.5c1.91-1.9 3.72-2.8 5.32-2.8 2.1 0 3.61 2.1 2 5l-5.5 9.6c-.91 1.5-.41 2.1.4 2.1 1.7 0 4.4-2.5 7.12-5.7l.3-.3s.1.1.2.1l3.7-6.4c1.61-2.8 4.52-4.4 6.53-4.4 1.6 0 2.8.9 3.51 2l5.62-9.6h3.81l-12.84 22.2c-.9 1.5-.4 2.1.4 2.1 1.7 0 4.42-2.5 7.13-5.7ZM215.63 8.8c-1 0-2.3.9-3.4 2.8l-5.53 9.5h.8c9.94 0 14.15-12.3 8.13-12.3ZM202 40.4c0 1 1.3 1.2 2.1-.2l1.71-3c-2.9 1.1-3.81 2.2-3.81 3.2Zm35.81-8.7c1.51 0 3.82-1.7 6.13-5.3l3-5.2c1.91-3.4-2.2-4.3-4.2-.8l-5.33 9.2c-.9 1.5-.4 2.1.4 2.1Zm36.72 0c1.6 0 3.92-1.7 6.22-5.5l2.91-5c1.91-3.4-2.2-4.3-4.21-.8l-5.32 9.2c-.9 1.5-.4 2.1.4 2.1ZM34.95 5.5c7.53 0 7.03 9.6-.7 12.2 7.33 4.9 2 18.5-9.33 18.5-13.34 0-15.75-14.6-7.72-19.7l1.5 1.9c-3.71 2.4-4.41 7.8-1.8 11.4.5-.59.87-1.17 1.27-1.82l.23-.38L28.63 9.9c1.71-2.9 4.22-4.4 6.32-4.4ZM19.3 32c1.5.8 3.21 1.3 5.52 1.3 9.23 0 12.74-13.1 3.81-15l-1-.1-6.42 11.1c-.6 1-1.2 1.9-1.9 2.7Zm12.75-21.3L28.94 16c3.9-.1 6.01-.9 7.52-3.7 1.9-3.6-1.6-6.4-4.41-1.6Zm37.52 23.4c-2.51 0-3.71-1.9-3.11-4.1-2.71 2.3-5.82 4.1-9.03 4.3-3.21 0-5.22-2-5.12-4.6-2.7 2.6-6.12 4.6-9.43 4.6-4.51 0-6.62-3.8-4.21-7.8l4.01-6.8c1.6-2.8 4.01-4.4 7.12-4.4 3.11 0 5.02 2.6 3.01 6.1l-.5.9c-2.9 4.9-7.52 5.4-9.93 4.4l-.4.7c-1.7 3-.3 4.5 2 4.5 2.71 0 6.22-2.5 8.93-5.7l.3-.3c.05.05.1.08.15.1.05.03.1.05.16.1l3.8-6.5c1.61-2.8 4.02-4.4 7.13-4.4 3.11 0 5.02 2.6 3.01 6.1l-.5.9h-3.11l.5-.9c2.3-3.9-1.6-4.6-3.81-.8l-3.91 6.8c-1.71 3-.3 4.5 2 4.5 2.71 0 6.22-2.5 8.93-5.7l.3-.3c.2.1.4.2.6.4l3.82-6.6c1.6-2.8 4.51-4.4 6.52-4.4 2.5 0 4.11 2.2 4.01 3.8h2.2L78.9 29.7c-.9 1.5-.4 2.1.4 2.1 1.7 0 4.41-2.5 7.12-5.7l.3-.3c.05.05.1.08.15.1.05.03.1.05.15.1l6.02-10.4h3.82l-7.43 12.9-.03.05c-.5.8-1.35 2.16-.47 2.55.7.3 2.91-1.2 5.82-3.8l6.72-11.8h3.81l-8.12 14.2c-.9 1.5-.4 2.1.4 2.1 1.7 0 4.41-2.5 7.12-5.7l.1-.2-.1-.1c2.82-3.3 5.64-7.23 7.44-9.73l.99-1.37 2.8 1.5c-1.47 2.94-1.92 6.18-2.33 9.07a29.2 29.2 0 0 1-.97 4.93c1.5-1 3.2-2.5 4.61-4.1l.3-.3h.1l3.72-6.3c1.6-2.8 4-4.4 7.12-4.4 3.1 0 5.01 2.6 3 6.1l-.5.9c-2.9 4.9-7.52 5.4-9.93 4.4l-.4.7c-1.7 3-.3 4.5 2.01 4.5 2.7 0 6.22-2.5 8.93-5.7l.3-.3c.5.2 1.1.8 1.4 1.3-3.1 3.6-7.42 7-11.73 7-3.11 0-5.02-1.8-5.12-4.3-2.4 2.1-5.12 3.8-7.93 4.2h-.1c-.4.1-.7.1-1.1.1a4.19 4.19 0 0 1-4.21-3.1l2.4-1.2s.5 1.4 1.81 1.4c2.4 0 2.85-3.12 3.32-6.36.24-1.64.49-3.32 1-4.64l-1.4 1.83a80.2 80.2 0 0 1-3.92 4.97c0 .05.02.08.05.1.02.03.05.05.05.1-3.21 3.6-6.83 7-9.94 7-2.4 0-3.6-1.6-3.2-3.6-1.81 1.7-4.12 3.6-6.23 3.6-1.9 0-2.8-1.4-2.4-3.4-2.21 2-4.42 3.4-6.42 3.4-1.91 0-3.11-1-3.32-2.5-1.9 1.5-3.8 2.5-5.31 2.5Zm58.89-12.9c2.3-3.9-1.6-4.6-3.81-.8l-2.41 4.2c1.4.5 3.91.6 5.72-2.5l.5-.9Zm-52.87-.7-5.32 9.2c-.9 1.5-.4 2 .4 2.1 1.5 0 3.81-1.7 6.12-5.3l3.01-5.2c1.9-3.4-2.2-4.3-4.21-.8Zm-25.79.7c2.31-3.9-1.6-4.6-3.81-.8l-2.4 4.2c1.4.5 3.9.6 5.71-2.5l.5-.9Zm125.21 12.9c4.31 0 8.63-3.4 11.74-7-.3-.5-.9-1.1-1.4-1.3l-.3.3c-2.72 3.2-6.23 5.7-8.94 5.7-2.3 0-3.7-1.5-2-4.5l.4-.7c2.4 1 7.02.5 9.93-4.4l.5-.9c2-3.5.1-6.1-3-6.1-3.12 0-5.53 1.6-7.13 4.4l-3.71 6.3s-.1 0-.1-.1l-.3.3c-2.71 3.2-5.42 5.7-7.13 5.7-.8 0-1.3-.6-.4-2.1l5.52-9.6c1.6-2.9.1-5-2-5-1.61 0-3.42.9-5.32 2.9l6.12-10.5h-3.92L152.84 26c-.05-.05-.13-.1-.2-.15l-.2-.15-.3.3c-2.71 3.2-5.42 5.7-7.13 5.7-.8 0-1.3-.6-.4-2.1l8.13-14.2h3.1l1.11-1.8h-3.1l3.6-6.2h-3.8l-3.62 6.2h-3.41l-1.1 1.8h3.5l-7.62 13.2c-1.6 2.8-.5 5.4 2.6 5.4 1.92 0 3.92-1.2 6.03-3l-1.5 2.6h3.8l5.82-10c5.82-7.3 8.43-6.4 6.83-3.6l-4.92 8.6c-1.6 2.8-.5 5.4 2.61 5.4 2.3 0 4.92-1.8 7.32-4.2 0 2.5 1.91 4.3 5.02 4.3Zm3.11-13.7c2.2-3.8 6.12-3.1 3.81.8l-.5.9c-1.8 3.1-4.31 3-5.72 2.5l2.41-4.2Zm-14.85 41.4-.3.3c-2.7 3.2-5.42 5.7-7.12 5.7-.8 0-1.3-.6-.4-2.1l5.52-9.6c1.6-2.9.1-5-2.01-5-1.6 0-3.41.9-5.32 2.8l1.4-2.5h-3.8L145.1 62l-.25-.15-.25-.15-.3.3a7.82 7.82 0 0 1-5.72 2.8l3.61-6.2c2.31-4 .2-7.7-3.4-7.7-2.92 0-5.22 1.2-7.43 5l-1.9 3.2-1.61 2.8a.51.51 0 0 0-.15-.1l-.03-.01a.42.42 0 0 1-.12-.09l-.3.3c-3.12 3.6-5.82 5.9-8.83 7.2l10.43-17.8h-3.81l-6.72 11.7c-2.91 2.7-5.22 4.2-5.92 3.9-.89-.4-.04-1.74.47-2.55l.03-.05 7.42-12.9h-3.81L110.4 62a.52.52 0 0 0-.15-.1.51.51 0 0 1-.15-.1l-.3.3c-2.71 3.2-5.42 5.7-7.13 5.7-.8 0-1.3-.6-.4-2.1l5.52-9.6c1.6-2.9.1-5-2-5-1.61 0-3.42.9-5.32 2.8l1.4-2.5h-3.81l-6.12 10.5c-.1-.1-.2-.2-.4-.2l-.3.3c-2.71 3.2-5.42 5.7-7.13 5.7-.8 0-1.3-.6-.4-2.1l6.12-10.7h-2.2c.1-1.6-1.5-3.8-4.02-3.8-2 0-4.91 1.6-6.52 4.4l-3.91 6.8c-.3-.2-.6-.4-.8-.5l-.3.3c-2.71 3.2-6.12 5.7-9.84 5.7-2.6 0-4.21-2.6-1.9-6.5l1.1-1.9c.7.1 1.4.2 2.2.2 4.02 0 8.64-2.1 11.65-7.3 1.1-1.9 1.5-3.6 1.5-5.1 0-3.4-2.2-5.7-5.02-5.7-2.1 0-4.61 1.5-6.32 4.4l-5.92 10.2a6.22 6.22 0 0 1-3.4-5.4c0-1.8.8-3.5 2.4-4.8l-1.2-2.2c-2.71 1.9-3.92 4.5-3.92 7.1 0 3 1.71 5.9 4.82 7.5l-1.1 2c-2.71 4.6-1.1 9.7 4.31 9.7 4.21 0 7.42-1.9 10.03-4.4-.8 2.4.4 4.4 3.11 4.4 1.5 0 3.41-1 5.32-2.5.2 1.5 1.4 2.5 3.31 2.5 1.8 0 3.81-1.1 5.72-2.8l-1.4 2.4h3.8l5.83-10.1c5.82-7.3 8.42-6.3 6.72-3.5l-4.92 8.6c-1.6 2.8-.5 5.4 2.61 5.4 2 0 4.32-1.4 6.52-3.4-.5 2.1.5 3.4 2.41 3.4 1.8 0 3.91-1.5 5.62-3.1l-2.1 3.6c-5.13 1.5-8.44 3.6-8.44 6.5 0 3.6 5.62 4.4 8.33-.3l2.91-5c3.21-1 6.32-3 9.63-6.2-.5 5.3 6.52 6.5 10.84 1.1h.8c1.4 0 3.31-.5 5.02-1.5l-2.51 4.4h3.81l5.82-10.1c5.82-7.3 8.43-6.3 6.72-3.5l-4.91 8.6c-1.61 2.8-.5 5.4 2.6 5.4 3.11 0 6.73-3.4 9.94-7-.1-.3-.8-.9-1.3-1.1Zm-94.7-14.2c1.1-1.9 2.4-2.8 3.4-2.8 1.41 0 2.11.9 2.11 2.3 0 3.5-4.31 9.9-10.23 9.9h-.8l5.51-9.4ZM82 62.4c-2.31 3.6-4.62 5.3-6.12 5.3-.8 0-1.3-.6-.4-2.1l5.31-9.2c2.01-3.5 6.12-2.6 4.22.8L82 62.4Zm28.9 13.8c-.81 1.4-2.11 1.2-2.11.2s.9-2.1 3.8-3.2l-1.7 3ZM136.58 62h-.2c-1.2 0-2.21 1-2.21 2.3 0 .5.1.9.4 1.3v.1c-1.8 3.1-6.12 2.5-3.91-1.5l2.9-5 1.81-3.1c2.71-4.5 6.32-2.7 4.01 1.2l-2.8 4.7Zm113.47-.2c.5.1 1.2.7 1.4 1.3-2.81 3.3-6.72 6.4-10.53 7.1h-.1c-.4.1-.7.1-1.1.1-3.52 0-4.22-3.1-4.22-3.1l2.4-1.2s.5 1.4 1.81 1.4c2.4 0 2.85-3.12 3.32-6.36.24-1.64.49-3.32 1-4.64-.42.53-.86 1.12-1.34 1.77a79.92 79.92 0 0 1-4.08 5.13c-3.21 3.6-6.83 7-9.94 7-3.1 0-3.7-1.7-3.7-4.9v-3l-4.32 7.5h-3.81l2.1-3.7c-2.7 2.3-5.71 4-8.82 4-3.12 0-5.12-1.9-5.12-4.4-2.51 2.5-5.12 4.4-7.53 4.4-2.4 0-3.6-1.6-3.2-3.6-1.81 1.7-4.12 3.6-6.23 3.6-1.6 0-2.5-1-2.5-2.5-1.81 1.3-3.72 2.1-5.62 2.4h-.1c-.4.1-.7.1-1.1.1a4.18 4.18 0 0 1-4.2-3 90.88 90.88 0 0 1-2.23 2.7l-.3-.23a4.39 4.39 0 0 1-1.1-1.07c3.5-4 12.24-15.6 13.84-17.8l2.81 1.5c-1.47 2.94-1.93 6.18-2.34 9.07a29.2 29.2 0 0 1-.97 4.93l1-.83h.01c.46-.38.95-.78 1.4-1.17l7.42-12.7h3.81l-7.42 12.9-.03.05c-.5.8-1.36 2.16-.47 2.55.7.3 2.9-1.2 5.82-3.8l6.72-11.8h3.81l-8.12 14.2c-.9 1.5-.4 2.1.4 2.1 1.7 0 4.41-2.5 7.12-5.7l.3-.3s.1.1.2.1l3.71-6.4c1.6-2.8 4.02-4.4 7.13-4.4 3.1 0 5.01 2.6 3 6.1l-.5.9h-3.1l.5-.9c2.3-3.9-1.6-4.6-3.82-.8l-3.9 6.8c-1.71 3-.3 4.5 2 4.5 2.7 0 6.22-2.5 8.93-5.7l.3-.3c.2.1.5.3.7.5L232 43.4h3.8l-5.4 9.4c3.9-3.6 9.62-1.6 6.11 4.5l-1 1.8c-1.8 3.1-4.62 4.8-7.33 4.5v1.6c0 1.8.8 2.6 1.6 2.6 1.71 0 4.42-2.5 7.13-5.7l.3-.3c2.82-3.3 5.64-7.23 7.44-9.73l.99-1.37 2.8 1.5c-1.47 2.94-1.92 6.18-2.33 9.07a29.2 29.2 0 0 1-.97 4.93c1.5-1 3.2-2.5 4.61-4.1l.3-.3ZM174.7 67l2.22-1.1s.5 1.4 1.8 1.4c2.4 0 2.85-3.12 3.32-6.36.24-1.64.49-3.32 1-4.64-.98 1.35-5.31 6.95-8.34 10.7Zm52.58-8.8-1.1 1.9c.9 2.5 4.21 1.1 5.31-.9l1.81-3.1c1.4-2.3-1.6-4-6.02 2.1Zm24.08 7.5c-1.2 0-2.2 1-2.2 2.2 0 1.2.9 2.2 2.2 2.2 1.2 0 2.2-.9 2.2-2.2 0-1.2-1-2.2-2.2-2.2Zm4.01-1.5h-3.81l11.94-20.7h3.81l-11.94 20.7Zm25.18 1.4c-.1.3-.2.6-.2.9 0 .7.3 1.3.8 1.6.5.4 1 .6 1.71.6 0 .4-.1.7-.3 1-.2.3-.4.6-.7.8-.3.2-.6.4-.9.5-.21.14-.42.23-.6.3l-.2.1 1.4 2a.53.53 0 0 1 .2-.12l.2-.08.23-.14c.13-.1.28-.2.47-.26.3-.1.6-.3.9-.5.3-.2.6-.5.8-.7.6-.5 1-1.2 1.31-1.9.3-.8.5-1.5.5-2.4 0-.5-.1-.9-.2-1.3l-.11-.24a2.44 2.44 0 0 0-.5-.76c-.3-.3-.7-.5-1.1-.7-.4-.2-.8-.3-1.3-.3-.4 0-.8.1-1.1.2-.3.2-.6.4-.8.6-.2.2-.4.5-.5.8Zm-7.82 0c-.1.3-.2.6-.2.9 0 .7.2 1.3.8 1.6.5.4 1 .6 1.7.6 0 .4-.1.7-.3 1-.2.3-.4.6-.7.8-.3.2-.6.4-.9.5a3 3 0 0 1-.8.4l1.4 2a.53.53 0 0 1 .21-.12l.2-.08.22-.14c.14-.1.29-.2.47-.26.3-.1.6-.3.9-.5.3-.2.61-.5.81-.7.6-.5 1-1.2 1.3-1.9.3-.8.5-1.5.5-2.4 0-.5-.1-.9-.2-1.3-.2-.4-.4-.7-.6-1-.3-.3-.7-.5-1.1-.7-.4-.2-.8-.3-1.3-.3-.4 0-.8.1-1.1.2-.3.2-.61.4-.81.6-.2.2-.4.5-.5.8Z" clip-rule="evenodd"></path></svg><svg fill="none" id="burger-icon" viewBox="0 0 23 22"><path d="M22.9 0H0v4h22.9V0ZM22.9 9H0v4h22.9V9ZM22.9 18H0v4h22.9v-4Z" fill="#81B3D2"></path></svg><svg fill="none" id="cross-icon" viewBox="0 0 23 23"><path fill="#fff" d="M22.2 2.8 19.4 0l-8.3 8.3L2.8 0 0 2.8l8.3 8.3L0 19.4l2.8 2.8 8.3-8.3 8.3 8.3 2.8-2.8-8.3-8.3 8.3-8.3Z"></path></svg><svg viewBox="0 0 60 60" id="htmlacademy"><path fill="currentColor" d="M30.2 5H30L10.3 7.1v36.2L30 55l19.7-11.7V7.1L30.2 5zm17 36.8L30 52 12.8 41.8V27l17.1 10.2V39l-11.7-7v1.8L30 40.9v1.9l-11.8-7v1.8l11.8 7 11.9-7.1v-7.6l5.3-3.2v15.1zm-.1-17-4.7 2.8-2.2 1.3-10.3-6.1v1.8l8.8 5.3h-.1l-.2.1-1.3.7-7.3-4.3v1.8l5.8 3.4-1.4.9-4.3-2.6v1.8l2.9 1.7-2.9 1.7-17-10.1 17-10.2 17.2 10zm.1-1.8L29.9 12.8 12.8 23V9.4L30 7.6l17.2 1.8V23z"></path></svg><svg fill="none" id="intro-triangle-text" viewBox="0 0 320 37"><mask id="intro-triangle-text_0" width="320" height="37" x="0" y="0" maskUnits="userSpaceOnUse" style="mask-type:alpha"><path fill="#C4C4C4" d="M0 0h320v37H0z"></path></mask><g fill="#fff" fill-rule="evenodd" clip-rule="evenodd" mask="url(#intro-triangle-text_0)"><path d="M-225 0h384v37L-225 0Zm768 0H159v37L543 0Z"></path></g></svg><svg fill="none" id="intro-triangle" viewBox="0 0 1200 57"><path fill="#fff" d="M249.6 23.7 0 0v57h600L249.6 0v23.7Zm700.8 0V0L600 57h599.9V0L950.4 23.7Z"></path></svg><svg fill="none" id="like-icon" viewBox="0 0 23 21"><path d="m12.964 3.78-.628 3.045-.627 2.625h9.096v2.205L17.773 18.9h-9.41V8.4l4.6-4.62ZM2.09 10.5v8.4-8.4ZM13.8 0 6.9 6.93c-.418.315-.627.84-.627 1.47v10.5c0 1.155.94 2.1 2.09 2.1h9.41c.836 0 1.568-.525 1.881-1.26l3.137-7.455c.104-.21.104-.525.104-.735v-2.1H23c0-1.155-.94-2.1-2.09-2.1h-6.587l1.045-4.83v-.315c0-.42-.209-.84-.418-1.155L13.8 0ZM4.182 8.4H0V21h4.182V8.4Z" fill="currentColor"></path></svg><svg fill="none" id="list-icon-burger" viewBox="0 0 40 40"><path fill="#81B3D2" d="M37.74 25.85H2.26A2.23 2.23 0 0 0 0 28.03v1.77c0 1.17 1 2.13 2.26 2.13h.52v.5a5.12 5.12 0 0 0 5.2 5.02h24.04c2.89 0 5.2-2.28 5.2-5.01v-.51h.52c1.21 0 2.26-.96 2.26-2.18v-1.77c0-1.12-1-2.13-2.26-2.13Zm-2.04 6.59c0 1.92-1.63 3.49-3.63 3.49H7.93c-2 0-3.63-1.57-3.63-3.5v-.5h31.4v.5Zm2.73-2.69c0 .36-.32.66-.69.66H2.26a.68.68 0 0 1-.69-.66v-1.77c0-.3.32-.61.69-.61H37.8c.36 0 .68.3.68.66v1.72h-.05Zm-29.93-8 2.84 2.02 2.89-2.02 2.88 2.02L20 21.75l2.83 2.02 2.9-2.02 2.88 2.02 2.89-2.02 2.88 2.02 3.31-2.38-.9-1.21-2.4 1.67-2.9-2.03-2.88 2.03-2.89-2.03-2.89 2.03L20 19.82l-2.89 2.03-2.88-2.03-2.9 2.03-2.83-2.03-2.88 2.03-2.42-1.67-.94 1.21 3.36 2.38 2.88-2.02Zm28.72-3.45c0-.3.05-1.31 0-1.52C36.85 8.88 29.29 2.55 20 2.55c-9.3 0-16.9 6.33-17.27 14.23v1.52h34.49ZM20 4.07c8.4 0 15.33 5.67 15.64 12.71H4.3C4.67 9.74 11.6 4.07 20 4.07Z"></path><path fill="#81B3D2" d="M20 11.16c.58 0 1.05-.45 1.05-1.01S20.58 9.14 20 9.14c-.58 0-1.05.45-1.05 1 0 .57.47 1.02 1.05 1.02Zm-4.2-2.48c.58 0 1.05-.45 1.05-1.01s-.47-1.02-1.05-1.02c-.58 0-1.05.46-1.05 1.02s.47 1 1.05 1Zm8.4 0c.58 0 1.05-.45 1.05-1.01s-.47-1.02-1.05-1.02c-.58 0-1.05.46-1.05 1.02s.47 1 1.05 1Z"></path></svg><svg fill="none" id="list-icon-gift-box" viewBox="0 0 40 40"><path fill="#81B3D2" d="M34.58 12.2h-12.4c6.91-3.44 7.47-5.62 7.22-6.83-.56-1.98-2.85-3.5-4.98-2.69-2.8 1.07-3.56 5.22-4.32 8.2-.96-3.03-1.88-6.88-4.06-8.85A3.7 3.7 0 0 0 13.14 1c-2.03.2-4.92 2.69-3.7 5.47 1.11 2.69 4.82 4.4 7.3 5.78H5.43c-.81 0-1.42.65-1.42 1.41v5.68c0 .8.66 1.42 1.42 1.42h.15V39h28.96V20.77h.05c.81 0 1.42-.66 1.42-1.42v-5.68c0-.8-.66-1.46-1.42-1.46Zm-9.35-8.25c1.07-.15 2.5.66 2.64 1.62.2 1.37-1.67 2.63-2.54 3.2-1.27.85-2.49 1.3-3.65 2.02.4-1.88 1.27-6.54 3.55-6.84ZM13.75 8.91c-1.12-.76-3.25-2.23-3.2-3.9.05-1.82 2.9-3.29 4.42-1.92 1.93 1.67 2.85 5.57 3.56 8.3-1.63-.8-3.15-1.41-4.78-2.48Zm3 28.57h-9.7V20.77h9.7v16.71Zm0-18.23H5.52v-5.52h11.23v5.52Zm5.08 18.23h-3.6V13.73h3.6v23.75Zm11.17 0h-9.65V20.77h9.7v16.71H33Zm1.48-18.23H23.35v-5.52h11.13v5.52Z"></path></svg><svg fill="none" id="list-icon-house" viewBox="0 0 40 40"><path fill="#81B3D2" d="M15.9 34.8h8.35V22.65H15.9V34.8Zm6.84-1.47h-5.32v-9.2h5.27v9.2h.05Z"></path><path fill="#81B3D2" d="m38.4 21.63 1.1-1.07-5.17-5.04V1.8h-7.2v6.7l-7.16-6.92L.5 20.61l1.1 1.07 4.07-3.97v19.23H3.63v1.48H37v-1.48h-2.66V17.66l4.07 3.97ZM28.64 3.3h4.13v10.74l-4.13-4.02V3.3Zm4.18 33.58H7.23v-20.7L19.97 3.71l12.8 12.46v20.7h.05Z"></path><path fill="#81B3D2" d="M16.06 15.42a4.01 4.01 0 0 0 4.02 3.97 4.03 4.03 0 0 0 4.07-3.97 3.98 3.98 0 0 0-4.07-3.92 3.94 3.94 0 0 0-4.02 3.92Zm4.02-2.54a2.59 2.59 0 0 1 2.6 2.54 2.58 2.58 0 0 1-2.6 2.55 2.59 2.59 0 0 1-2.61-2.55c0-1.37 1.2-2.54 2.6-2.54Zm-9.19 9.77H9.32v1.98h1.57v-1.98Zm3.08 0H12.4v1.98h1.57v-1.98Zm-3.08 3.05H9.32v1.98h1.57V25.7Zm3.08 0H12.4v1.98h1.57V25.7Zm13.57-3.05h-1.56v1.98h1.56v-1.98Zm3.14 0H29.1v1.98h1.57v-1.98Zm-3.14 3.05h-1.56v1.98h1.56V25.7Zm3.14 0H29.1v1.98h1.57V25.7Z"></path></svg><svg fill="none" id="logo" viewBox="0 0 185 96"><path fill="#81B3D3" d="M185 0H0l79.81 90.1c7.04 7.87 18.44 7.87 25.48 0L185 0Z"></path><path fill="#23A9E1" d="M42.83.7 92 58.84 140.88 1.1 42.83.7Z"></path><path fill="#fff" d="M120.95 17.22c-5.05 0-10 .1-15.07.1 5.95-6.87 8.63-6.17 15.07-.1ZM80.1 22.6h26.48c-1.98-1.2-6.64-7.07-9.22-4.88-.2.2-7.44-8.86-12.2-4.48-4.16 3.78-6.04-.5-10.8 2.49-5.26 3.58 3.17 5.68 5.75 6.87Z"></path><path fill="#491213" d="M92.3 0H41.84v22.4L92 83.63l.3-.4 50.27-60.13V0H92.3ZM54.43 1.8h5.45v17.12l-5.45-6.48V1.8Zm-.8 9.75-4.95-5.88V1.8h4.96v9.76Zm19.14-2.69L67.12 1.8h5.65v7.07Zm-6.54 3.78L60.68 1.8h5.55v10.85ZM60.58 3.4l5.45 10.65a39.17 39.17 0 0 0-5.45 4.88V3.39Zm6.44-.5 5.55 6.87a41.79 41.79 0 0 0-5.55 3.68V2.89Zm6.54-.2 4.76 4.18c-1.68.7-3.27 1.5-4.76 2.29V2.69Zm5.56 3.88L73.76 1.8h5.95v4.58c-.3 0-.4.1-.6.2ZM98.05 1.8h4.96l-4.96 2.4V1.8Zm-5.75 0h4.36L92.3 3.9V1.8Zm-.9 2-4.15-2h4.16v2Zm-5.44.5L80.9 1.8h5.06v2.5ZM80.4 2.4l4.66 2.29c-1.58.4-3.17.8-4.66 1.3v-3.6Zm6.35 0L90.12 4c-1.19.1-2.28.2-3.47.4v-2h.1Zm10.31.1v1.9c-1.09-.2-2.18-.3-3.37-.4l3.37-1.5Zm6.44-.1v3.68c-1.48-.5-3.07-1-4.75-1.4l4.75-2.28Zm.7-.6h5.85l-5.36 4.78c-.2-.1-.3-.1-.5-.2V1.8Zm13.48 0h5.55l-5.55 10.85V1.8Zm-6.54 0h5.65l-5.65 6.97V1.8Zm-.8.9v6.47c-1.48-.8-3.07-1.6-4.75-2.29l4.76-4.18Zm6.55.2v10.45c-.7-.5-1.49-1-2.28-1.6-1-.69-2.18-1.39-3.37-2.08l5.65-6.77Zm6.34.5v15.13c-1.09-1-2.87-2.69-5.45-4.58l5.45-10.55Zm.8 15.92V1.8h5.45v11.35l-5.45 6.17c.1.1 0 .1 0 0Zm6.24-17.52h4.96v4.68l-4.96 5.78V1.79Zm-82.29 0v2.89L45.51 1.8h2.48Zm12.7 18.12.1.1s3.56-3.88 9.12-7.57C75.15 8.96 83.08 4.88 92 4.98c8.83 0 16.96 4.18 22.11 7.66 5.56 3.69 9.22 7.47 9.32 7.57l-3.86 4.48c-6.84.9-11.8 6.07-18.44 4.98-3.38-.6-3.47-2.49-4.47-4.48-.69-1.5-1.88-1.3-3.47-1.9-1.38-.59-2.28-1.69-5.15-1.09-2.48.6-2.78 4.48-5.95 4.28-1.69-.1-1.78-2.49-4.16-5.47-6.25-7.57-12.1-6.47-16.07.5l30.05 35.74L60.68 19.9Zm75.24-14.43v-3.7h3.18l-3.18 3.69Z"></path><path fill="#23A9E1" d="M87.94 70.59 92 64.12l3.97 6.47L92 77.06l-4.06-6.47Z"></path><path fill="#fff" d="M64.94 32.16c.5.6.9 1.3.8 2.09-.1.6-.9 1.6-.3 1.79.69-.9 1.48-1.9 2.18-2.79-.6-.2-5.36-5.77-5.36-6.47-1.09.6-2.08 1.2-3.17 1.7.2.7 1.29 0 1.88 0 .8.1 1.4.6 1.99 1.19-1.69 1.4-5.85 4.98-6.35 5.08-.2 0-1.09-.6-1.09-.1 0 .3.9 1 1 1.2.69.89 1.48 1.78 2.17 2.68.6-.3-.1-.7.2-1.2.3-.4 4.86-4.28 6.05-5.17Zm-5.26-6.97c.4-.1.6.4 1-.1-.8-1-1.6-1.9-2.38-2.89-.4-.4-.8-.9-.7 0 .1.6-6.05 5.68-6.44 5.78-.5.2-.8-.4-1.1.1.7.9 1.5 1.69 2.19 2.58.2.3.5.6.7.9.29.3.19-.7.19-.6-.1-.5.5-.9.9-1.2 1.48-1.29 5.25-4.57 5.64-4.57Zm-8.72-.89c-1.79.49-3.67-.2-4.16-2-.5-1.8.59-3.78 2.08-4.78 1.39-1 3.57-1 4.36.8.3.8.2 1.7-.1 2.49-.2.5-.6 1 .1 1.3.9-1.1 1.68-2.2 2.58-3.3-1.1-.6-1.49-1.69-2.28-2.58-.9-1.1-2.09-2.1-3.47-2.3-2.88-.39-5.55 2.6-5.75 5.19a6.3 6.3 0 0 0 1.19 3.98c.79 1 1.88 1.6 2.38 2.79.3.1 2.67-1 3.27-1.3-.1-.1-.1-.2-.2-.3 0 0-.7.2 0 0Zm38.96 36.23c-1.19-.8-3.96-4.68-4.56-5.27-.1-.1-.2-.3-.3-.4 0 0-.3.2-.2.2-.2.1.1.6-.1.9-.79 1.19-5.74 4.97-5.94 5.17-.6.4-1.2-.2-1.49.3.7.9 2.78 3.48 2.98 3.58.5.1.1-.8.2-1 .1-.4 2.57-2.38 3.46-3.18.3-.3.7.4.9.7.3.5.5 1 .3 1.6-.1.39-.7.89-.3 1.19.6-.7 2.38-2.8 2.57-3 .3-.29-.6 0-.5-.1-.39.2-.69.2-1.08 0-.1-.1-1.1-1.09-1-1.19.4-.4 1-1 1.5-1.1.89-.19 1.58 1.5 1.68 2.1.1.6.1 1.2-.1 1.8-.1.39-.5.69 0 .89.7-1 1.39-1.9 2.08-2.89.2-.2 0-.3-.1-.3.2 0-.1-.1 0 0Zm-10.11-4.18a5.32 5.32 0 0 0 .8-7.27c-1.9-2.49-5.36-3.08-7.74-1.1a5.31 5.31 0 0 0-.8 7.28c1.99 2.68 5.16 2.98 7.74 1.09 1.19-.9-.1.1 0 0Zm-.5-4.68a7.36 7.36 0 0 1-3.66 3.68c-1.79.7-3.08-.8-2.38-2.58a7.77 7.77 0 0 1 3.66-3.69c1.89-.7 3.08.9 2.38 2.6.1-.2-.4.89 0 0Zm-5.85-9.86c.5.1.9.5 1.3 0-.7-.9-1.5-1.79-2.19-2.58-.6.3 0 .5-.2 1-.2.39-2.57.79-3.17.89.2-.6.9-2.6 1.2-2.79.49-.4.88.4 1.28-.1L69 34.95c-.3-.4-.6-1-.99-.7 0 0 0 1.5-.1 1.7-.1.19-.89 3.57-1.88 4.47-.5.4-2.18 1.9-2.68 2.1-.5.2-.8-.6-1.19 0 .8.99 1.69 1.98 2.48 2.98.1.1.6.9.8.9.49.1.1-.9.1-1.1.2-.4 2.47-2.69 3.46-2.89 1.2-.2 2.98-.7 4.46-.6.3.1-.4 0 0 0Z"></path><path fill="#DC6243" d="M67.22 22.8c-3.97-.2-2.38-3.98.4-4.78 2.57-.8 8.03 1.7 9.71 3.39-2.77.9-6.34.7-9.32.9-.2-3.2-.99-2.1-.8.49Zm9.42 12.44c-8.53-.1-2.78-13.24.1-12.44 3.37 1.1 2.97 12.54-.1 12.44Zm6.04-4.28c-.79 2.5-2.37 2.99-2.18-.1.2-3.48 2.48-2.68 4.86-3.98 1.98-1.1 3.08-5.18 6.55-2.79 1.58 1.1 3.37.2 3.86 1.8 0-.1-4.46 10.25-1.98 10.25-4.96 0-2.78-5.87-.9-9.86-1.78.9-4.75 6.67-2.37 7.57-1.3 1.7-5.16 3.88-7.14 2.29-1.49-1.1-.7-3.19-.7-5.18Zm4.07 9.56c-3.47 1-8.03-1.2-2.48-2.29 3.47-.7 7.14.7 2.48 2.3.1 0-.1 0 0 0Zm4.36-.1c-.7-1.7.6-3.58 2.68-2.19 1.78 1.2-.9 3.09-2.68 2.2ZM88.14 45c-2.38-.7-10.41-.6-5.16-2.79 1.69-.6 10.11.2 5.16 2.8Zm10.41 3.29c-1.39-1.2-2.88-1.3-4.17 0-1.78-3.29-8.23-2.2-11.3-2.7 1.59 4.09 14.67 4.89 15.47 2.7Zm-1.89 2.49c-3.17-.1-6.64-.6-9.51.1 1.88.5 6.34 1.79 2.18 2.88 1.48 2.2 3.96 2 5.55.1-.7-.3-1-.7-1.59-1.1 1.59-.3 3.18-1.19 3.37-1.98Zm3.57-3.88c-5.25-3.1-3.96-5.38.4-7.57 2.28-1.1 7.24-5.18 9.32-3.89-3.27 3.89-6.54 7.67-9.72 11.45Z"></path><path fill="#F49774" d="M96.47 39.62c-4.47-4.58 6.64-4.18 8.42-5.77 1.3.4 10.71-8.26 12.99-7.67-1.69 1.9-5.16 8.07-7.73 8.07-1.98 0-3.97-.3-5.46 1.1-2.18 2.08-5.84 3.08-8.22 4.27Z"></path><path fill="#F4B1A4" d="M97.95 34.05c-2.48 1.3-4.76-3.88-.5-3.39 2.78.3 5.66-.2 8.24.2-1.99 2.3-4.66 3.59-7.74 3.19Z"></path><path fill="#fff" d="M110.44 52.27c.2.6.3 1.3.2 1.99-.1.9-.99 2.89-2.18 2.29-1.19-.6-2.18-1.7-3.17-2.59.8-.9 1.49-1.7 2.88-1.3.4.1.69 0 .3-.3-.4-.2-3.08-1.98-3.28-1.78-.3.3.5.9.2 1.49-.2.4-.6.8-.9 1.2-.69-.6-1.88-1.3-1.08-2.3.5-.7 1.28-1.19 2.08-1.29.6-.1 1.78.4 1.98-.2-1.09-.5-2.18-1-3.27-1.6.2.8-3.27 4.49-4.07 5.48-.1.1-.69.6-.69.8 0 .4.6.1.7.1.49-.2 6.74 5.08 6.93 5.48.1.3-.2.6 0 .7 0 0 .2.2.3.2.4-.5 4.46-5.98 5.35-6.18-.79-1.2-1.58-2.4-2.37-3.68-.6.3 0 1 .1 1.49Zm-6.14 6.67c-2.08-1.3-5.55 1.3-6.05 1.5-1 .49-1.78-.5-1.29-1.5a3 3 0 0 1 2.28-1.3c.3 0 1.3.2 1.49 0 .1-.2.2-.2 0-.3-.9-.6-1.69-1.19-2.58-1.69-.2 1.1-1.39 1.7-2.08 2.4-.8.89-1.49 1.88-1.49 3.18 0 1.1.7 2.09 1.69 2.69 1.09.6 2.28.1 3.27-.5.6-.4 1.29-.9 1.88-1.2 1-.5 2.28-.1 1.99 1.3a3.44 3.44 0 0 1-2.38 2.29c-.6.2-1.3.1-1.89-.1-.4-.1-.99-.7-1.19-.1 1.2.8 2.28 1.7 3.47 2.49.1-.8.5-1.1 1.1-1.6.69-.6 1.38-1.29 1.98-2.09 1.19-1.69 1.58-4.08-.2-5.47Zm0 0c-.6-.5.99.6 0 0Zm36.38-39.43c-.7.7-8.33-2.29-8.92-2.78-.3-.1-.3-1.3-.7-.8l-1.18 1.5c-.4.5-.8.99-1.3 1.49-.29.3-.49.5 0 .7.8-.4 5.36 7.26 4.96 8.46-.69.4-6.84-5.08-7.03-5.38-.1-.1.3-1-.2-.9-.2 0-.7.9-.9 1.1-.3.4-.59.7-.89 1.1.3.5.5 0 1 0 .4.1 1.78 1.29 2.18 1.69-.7 0-2.68.1-2.88.1-.9.1-.4-.7-1-.9-.78.9-1.48 1.8-2.27 2.79l-1.29 1.59c-.1.1 0 0 0 .1.3.3.1.2.6 0 .49-.2 6.54 4.88 6.74 5.18.4.4-.2 1 .4 1.2.59-.7 1.18-1.5 1.78-2.2.1-.1.1-.1 0-.2-.4-.4-.5.2-1 .2-.49-.1-4.36-3.38-5.84-4.58 1.78-.1 7.23-.3 8.13-.3.3 0 1.09.9 1.09 1.2-.1.4-.5.6.1.8.5-.6.99-1.1 1.48-1.7l.2-.3c.1-.1.1-.1.2-.3l.2-.2c.4-.5 1.78-1.99 1.58-2.09-.5-.4-.69.5-1.28-.1-.3-.2-1.2-1.79-1.4-2.19-.29-.4.6-.9 1-1.09.8-.5 3.17-1.2 3.47.3 0 .3-.3.5-.1.7 0 0 .2.2.3.2.2-.2 2.38-2.8 3.27-3.99-.3-.2-.4-.3-.5-.4Zm-7.33 2.2c.1 0 .2-.1 0 0-.3.2-.7.5-1 .79-.49-.9-.99-1.8-1.58-2.69 1.19.5 2.38 1 3.47 1.5-.2.1-.5.2-.9.4Zm-9.62 11.14c-2.38-1.99-5.55-1.39-7.54.8a5.38 5.38 0 0 0 .6 7.57c2.28 1.89 5.65 1.4 7.53-.8 1.89-2.29 1.79-5.67-.59-7.57Zm-.3 6.58s0 .1 0 0c-1.29 1.29-3.37.1-4.46-.7-1.09-.8-3.07-2.59-1.88-4.08 1.09-1.3 3.07-.2 4.16.5 1.2.8 3.37 2.58 2.28 4.18l-.1.1Z"></path><path fill="#fff" d="M123.73 32.85c-.3-.2 1.19 1 0 0Zm-.3 6.68c0-.1 0-.1 0 0l.1-.1c-.1 0-.1.1-.1.1Zm-6.24 2.38c.1.1.3.3 0 0-2.88-2.19-6.25-1.59-8.43 1.1l-2.98 3.58c.4.5.8-.1 1.3.2.4.3 6.14 5.08 6.24 5.38.2.5-.3.5.1.9.2.1 4.46-5.18 4.86-6.18.89-1.79.3-3.68-1.1-4.98Zm-1.3 6.77c-.2.3 0 .1-.69.7-.3.3-6.34-4.68-6.14-4.88.79-.9 2.58-1.59 3.57-1.3 2.18.5 5.15 3.2 3.27 5.48Z"></path></svg><svg fill="none" id="mail-icon" viewBox="0 0 58 58"><path fill="#E6E6E6" d="M0 0h58v58H0z"></path><path d="M29 31c-.3 0-.5-.1-1-.3L21 27v7c0 .5.5 1 1 1h14c.5 0 1-.5 1-1v-7l-7 3.7c-.5.2-.7.3-1 .3Zm7-8H22c-.5 0-1 .5-1 1v.8l8 4.2 8-4.2V24c0-.5-.5-1-1-1Z" fill="#000"></path></svg><svg fill="none" id="phone-icon" viewBox="0 0 58 58"><path fill="#E6E6E6" d="M0 0h58v58H0z"></path><path fill="#010101" d="M23.6 27.8c1.4 2.8 3.8 5.1 6.6 6.6l2.2-2.2c.3-.3.7-.4 1-.2 1.1.4 2.3.6 3.6.6.6 0 1 .4 1 1V37c0 .6-.4 1-1 1-9.4 0-17-7.6-17-17 0-.6.4-1 1-1h3.5c.6 0 1 .4 1 1 0 1.2.2 2.4.6 3.6.1.3 0 .7-.2 1l-2.3 2.2Z"></path></svg><svg fill="none" id="sedona-icon" viewBox="0 0 461 81"><path fill="#fff" fill-rule="evenodd" d="M246.1 80.7c24.08 0 41.54-17.1 41.54-41.3 0-22.6-19.97-38.5-41.54-38.5s-41.53 15.9-41.53 38.5c0 24.2 17.45 41.3 41.53 41.3Zm-.1-18.9c-11.64 0-21.17-9.4-21.17-22.3 0-10.3 9.63-19.8 21.17-19.8 11.64 0 21.17 9.5 21.17 19.8 0 12.9-9.53 22.3-21.17 22.3ZM31.5 17.6c4.82 0 9.33 2 12.94 5l7.73-15c-6.62-3.8-15.95-6.2-23.48-6.2-15.05 0-25.88 9.9-25.88 25.1 0 14.5 8.03 17.6 20.27 21.2l.75.21c4.3 1.2 11.08 3.1 11.08 8.29 0 5.2-4.81 7.5-9.43 7.5-6.72 0-12.44-3.4-17.35-7.7L0 71.5C7.62 76.8 16.96 80 26.39 80c7.52 0 15.35-2 21.27-7 5.91-5 7.72-12.7 7.72-20.1 0-12.1-8.13-17.3-18.56-20.4L31.8 31c-3.3-1-8.62-2.7-8.62-7.1 0-4.2 4.71-6.3 8.32-6.3Zm60.4 14.7V19.8l23.27.1V3.4H72.44v74.8h42.73V61.7H91.9V48.8h21.97V32.3H91.9Zm37.72-28.9h27.7c20.86 0 38.12 16.4 38.12 37.4s-17.36 37.4-38.13 37.4h-27.69V3.4Zm19.56 58.3h4.42c11.64 0 21.57-6.4 21.57-20.9 0-13.4-8.83-20.9-21.37-20.9h-4.62v41.8Zm148.8-58.3h19.56l35.72 45.8h.2V3.4h19.56v74.8h-19.56l-35.72-45.9h-.2v45.9h-19.56V3.4Zm105.24 74.8 5.22-13h26.89l4.91 13H461L432.7 3.4h-21.26l-28.9 74.8h20.67Zm18.66-51.7h.2l8.03 23.8h-16.25l8.02-23.8Z" clip-rule="evenodd"></path></svg><svg fill="none" id="telegram-icon" viewBox="0 0 48 48"><path d="M0 0h48v48H0z"></path><path fill="#fff" d="m34.44 16.622-3.17 14.944c-.239 1.055-.862 1.317-1.748.82l-4.828-3.558-2.33 2.242c-.258.258-.473.473-.97.473l.347-4.917 8.948-8.086c.39-.346-.084-.54-.604-.192l-11.063 6.966-4.762-1.491c-1.036-.323-1.055-1.036.216-1.533l18.627-7.177c.863-.323 1.617.192 1.336 1.51Z"></path></svg><svg fill="none" id="tick" viewBox="0 0 22 16"><path fill="#333" d="M21.8 1.3 20.77.23a.84.84 0 0 0-1.14 0L8.3 11.96 2.4 5.84a.84.84 0 0 0-1.14 0L.21 6.93c-.28.3-.28.89 0 1.18l7.42 7.7c.2.19.38.19.57.19.2 0 .38-.1.57-.2L21.61 2.5c.48-.3.48-.79.2-1.18Z"></path></svg><svg fill="none" id="video-triangle-icon" viewBox="0 0 48 54"><path fill="#fff" fill-opacity=".7" d="M48 27 0 54V0l48 27Z"></path></svg><svg fill="none" id="vkontakte-icon" viewBox="0 0 48 48"><path d="M0 0h48v48H0z"></path><g clip-path="url(#vkontakte-icon_0)"><path fill="#fff" fill-rule="evenodd" d="M35.45 17.948c.166-.546 0-.948-.795-.948H32.03c-.668 0-.976.347-1.143.73 0 0-1.335 3.196-3.226 5.272-.612.602-.89.793-1.224.793-.167 0-.418-.191-.418-.738v-5.109c0-.656-.184-.948-.74-.948h-4.128c-.417 0-.668.304-.668.593 0 .621.946.765 1.043 2.513v3.798c0 .833-.153.984-.487.984-.89 0-3.055-3.211-4.34-6.885-.249-.715-.501-1.003-1.172-1.003H12.9c-.75 0-.9.347-.9.73 0 .682.89 4.07 4.145 8.551C18.315 29.341 21.37 31 24.153 31c1.669 0 1.875-.368 1.875-1.003v-2.313c0-.737.158-.884.687-.884.39 0 1.057.192 2.615 1.667C31.11 30.216 31.403 31 32.405 31h2.625c.75 0 1.126-.368.91-1.096-.238-.724-1.088-1.775-2.215-3.022-.612-.71-1.53-1.475-1.809-1.858-.389-.491-.278-.71 0-1.147 0 0 3.2-4.426 3.533-5.929h.001Z" clip-rule="evenodd"></path></g><defs><clipPath id="vkontakte-icon_0"><path fill="#fff" d="M12 12h24v24H12z"></path></clipPath></defs></svg><svg fill="none" id="welcome-icon" viewBox="0 0 258 85"><path fill="#766458" fill-rule="evenodd" d="m64.74 70-.2.2a6.26 6.26 0 0 1-4.52 2.2l2.81-4.9c1.8-3.1.1-6.1-2.7-6.1-2.31 0-4.12.9-5.82 3.9l-1.51 2.6-1.2 2.1-.2.2c-2.21 2.5-4.32 4.5-5.62 4.5-.7 0-1-.5-.3-1.6l6.42-11.2h2.4l.9-1.4h-2.5l2.8-4.9h-3l-2.81 4.9h-2.7l-.91 1.4h2.7l-6.01 10.4c-1.3 2.2-.4 4.3 2 4.3 1.71 0 3.72-1.3 5.52-3.1 0 3.8 5.32 4.6 8.53.5h.7c1.8 0 4.62-1.1 6.12-2.9 0-.5-.5-.9-.9-1.1Zm-6.42.2h-.1a1.8 1.8 0 0 0-1.5 2.8v.1c-1.41 2.4-4.82 2-3.12-1.2l2.31-3.9 1.4-2.4c2.11-3.6 5.02-2.2 3.22.9l-2.21 3.7Zm48.05-.2-.2.2c-2.2 2.5-4.91 4.5-7.02 4.5-1.8 0-2.9-1.2-1.6-3.6l.3-.5c1.9.8 5.62.4 7.82-3.5l.4-.7c1.6-2.8.1-4.8-2.4-4.8-2.41 0-4.32 1.3-5.62 3.5l-2.91 5-.2.2c-2.21 2.5-4.32 4.5-5.62 4.5-.7 0-1-.5-.3-1.6l4.31-7.6c1.3-2.3.1-3.9-1.6-3.9-1.3 0-2.71.7-4.22 2.3l4.82-8.3h-3.01L80.99 70l-.2.2c-2.2 2.5-4.31 4.5-5.62 4.5-.7 0-1-.5-.3-1.6l6.42-11.2h2.41l.9-1.4h-2.5l2.8-4.9h-3l-2.81 4.9h-2.71l-.9 1.4h2.7l-6.02 10.4c-1.3 2.2-.4 4.3 2.01 4.3 1.2 0 2.5-.6 3.81-1.6l-.8 1.3h3l4.52-7.9c4.62-5.8 6.63-5 5.42-2.8l-3.91 6.8c-1.3 2.2-.4 4.3 2 4.3 1.81 0 3.82-1.4 5.62-3.2.1 1.9 1.71 3.2 4.12 3.2 3.4 0 6.82-2.6 9.23-5.5.1-.6-.4-1-.8-1.2Zm-5.71-4.2c1.7-3 4.81-2.5 3 .6l-.4.7c-1.4 2.4-3.4 2.4-4.51 2l1.9-3.3Zm114.97 4.4.2-.2c.5.1 1 .6 1.1 1.1-2.2 2.6-5.21 5-8.32 5.4h-.1c-.3.1-.5.1-.8.1-2.81 0-3.32-2.4-3.32-2.4l1.91-1s.4 1.1 1.4 1.1c1.93 0 2.27-2.45 2.63-5 .19-1.31.38-2.65.78-3.7l-1.17 1.53c-.91 1.2-1.98 2.6-3.14 3.97-2.5 2.9-5.32 5.5-7.82 5.5-1.91 0-2.91-1.3-2.61-2.9-1.4 1.4-3.31 2.9-4.92 2.9-1.7 0-2.4-1.4-1.6-3.5-1.1.6-2.41.9-3.31.9h-.7c-3.22 4.1-8.63 3.3-8.53-.6-2.01 1.8-4.52 3.2-6.93 3.2-2.5 0-4.01-1.3-4.11-3.2-2.5 2.4-4.92 3.8-7.32 4.6l-2.31 3.9c-2.2 3.7-6.62 3.1-6.62.2 0-2.2 2.6-3.9 6.62-5.1l.7-1.2c-1.1.6-2.1 1-2.9 1-1.72 0-2.62-1-2.62-2.4-1.6 1.4-3.3 2.4-4.81 2.4-2.41 0-3.31-2.1-2.01-4.3l3.21-5.5c.3-.6.2-1.2-.2-1.7l-.4-.5c-2.4 3.2-3.61 4.7-5.02 6.4a9.01 9.01 0 0 1-6.12 2.9h-.7c-3.21 4.1-8.53 3.3-8.53-.5-2.5 2.3-4.81 3.8-7.22 4.5l-2.3 3.9c-2.22 3.7-6.63 3.1-6.63.2 0-2.2 2.6-3.9 6.62-5.1l.8-1.4c-1.1.6-2.1 1-2.9 1-2.41 0-3.32-2.1-2.01-4.3l4.21-7.3c1.2-2.2 3.51-3.5 5.12-3.5 1.8 0 3.1 1.7 3.1 2.9h1.81L121.13 76c2.41-1 4.52-2.8 7.03-5.7l.2-.2 1.2-2.1 1.5-2.6c1.71-3 3.52-3.9 5.82-3.9 2.81 0 4.52 3 2.71 6.1l-2.8 4.9c1.5 0 3.1-.7 4.5-2.2l.2-.2c2.02-2.3 3.82-4.8 5.13-6.7l-.3-.3c-1-1.4-.9-3.1.8-4.6l1.6 1.7c-.6.5-.6 1.2-.2 1.7l1.7 2c.91 1.2 1.41 2.3.4 4.1l-3 5.2c-.7 1.1-.4 1.6.3 1.6 1.3 0 3.41-2 5.62-4.5l.2-.2 2.9-5c1.21-2.2 3.52-3.5 5.13-3.5 1.8 0 3.1 1.7 3.1 2.9h1.81L159.95 76c2.4-1 4.51-2.8 7.02-5.7l.2-.2 2.91-5c1.3-2.2 3.21-3.5 5.62-3.5 2.5 0 4.01 2 2.4 4.8l-.4.7c-2.2 3.9-5.91 4.3-7.82 3.5l-.3.5c-1.3 2.4-.2 3.6 1.6 3.6 2.11 0 4.82-2 7.03-4.5l.2-.2 1.2-2.1 1.5-2.6c1.71-3 3.52-3.9 5.83-3.9 2.8 0 4.51 3 2.7 6.1l-2.8 4.9c1.5 0 3.1-.7 4.51-2.2l.2-.2 4.72-8.1h3l-5.81 10.2-.09.15c-.4.7-.97 1.67-.31 1.95.6.2 2.3-.9 4.61-3l5.32-9.3h3l-6.41 11.2c-.7 1.1-.4 1.6.3 1.6 1.3 0 3.41-2 5.62-4.5l.2-.2c2.6-2.96 5.1-6.52 6.42-8.38.11-.15.2-.3.3-.42l2.2 1.2c-1.14 2.35-1.49 4.84-1.8 7.08-.2 1.49-.4 2.86-.8 4.02a22 22 0 0 0 3.61-3.3Zm-39.83-3.8c1.8-3.1-1.3-3.6-3-.6l-1.92 3.3c1.1.4 3.12.4 4.52-2l.4-.7Zm-62 15.1c0 .9 1 1 1.6-.1l1.4-2.5c-2.3.9-3 1.8-3 2.6Zm2.7-8.4c-.7 1.1-.4 1.6.3 1.6 1.21 0 3.12-1.4 4.92-4.3l2.31-4c1.5-2.7-1.7-3.4-3.3-.6l-4.22 7.3Zm18.67-2.9h.1l2.2-3.7c1.81-3.1-1.1-4.5-3.2-.9l-1.4 2.4-2.32 3.9c-1.7 3.2 1.7 3.6 3.11 1.2V73a1.8 1.8 0 0 1 1.5-2.8Zm17.36 11.3c0 .9 1 1 1.6-.1l1.4-2.5c-2.3.9-3 1.8-3 2.6Zm2.7-8.4c-.7 1.1-.4 1.6.3 1.6 1.2 0 3.12-1.4 4.92-4.3l2.3-4c1.51-2.7-1.7-3.4-3.3-.6l-4.22 7.3Zm29.8-2.9h.1l2.2-3.7c1.81-3.1-1.1-4.5-3.2-.9l-1.4 2.4-2.31 3.9c-1.71 3.2 1.7 3.6 3.1 1.2V73a1.8 1.8 0 0 1 1.5-2.8Zm-155.5-3.4h-29v2h29v-2Zm198.74 0h29v2h-29v-2Z" clip-rule="evenodd"></path><path fill="#81B3D3" fill-rule="evenodd" d="M62.53 0h7.73l-1.2 44.9H54.5l-2-18.5-2 18.5H35.84L34.75 0h7.62l.6 37.2h.8L48.7 0h7.62l4.92 37.2h.8l.5-37.2Zm31.9 37.2V45H73.48V0h20.97v7.7H81.09v10.8h10.64v7.7H81.09v10.9h13.35v.1Zm21.48 7.8v-7.8h-10.74V0h-7.62v45h18.36Zm16.25-16.6 7.72-1.8v13.6c0 2.6-2.2 4.7-4.71 4.7h-11.54c-2.6 0-4.71-2.2-4.71-4.7V4.7c0-2.6 2.1-4.7 4.71-4.7h11.54c2.5 0 4.71 2.1 4.71 4.7v9.1l-7.72 1.8v-8h-5.52v29.5h5.52v-8.7Zm33.3-23.7c0-2.6-2.2-4.7-4.7-4.7H149.2a4.7 4.7 0 0 0-4.71 4.7v35.4c0 2.5 2.1 4.7 4.71 4.7h11.54c2.51 0 4.72-2.1 4.72-4.7V4.7Zm-13.24 3h5.52v29.5h-5.52V7.7ZM190.55 0h7.62v44.9h-7.62V22.8l-3.11 11.4h-7.53l-3-11.4v22.1h-7.63V0h7.62l6.83 21.7L190.55 0Zm32.4 45v-7.9h-13.34V26.2h10.63v-7.7h-10.63V7.7h13.34V0H202v45h20.96Z" clip-rule="evenodd"></path></svg><svg fill="none" id="youtube-icon" viewBox="0 0 48 48"><path d="M0 0h48v48H0z"></path><path fill="#fff" d="M31.181 17H16.813C15.306 17 14 18.3 14 19.8v8.3c0 1.6 1.306 2.9 2.813 2.9h14.368c1.608 0 2.814-1.3 2.814-2.8v-8.4c.1-1.5-1.206-2.8-2.814-2.8ZM21.033 27.4v-6.8l6.833 3.4-6.833 3.4Z"></path></svg></svg>